<?xml version="1.0" encoding="utf-8"?>
<!-- Generator: Adobe Illustrator 14.0.0, SVG Export Plug-In . SVG Version: 6.00 Build 43363)  -->
<!DOCTYPE svg PUBLIC "-//W3C//DTD SVG 1.1//EN" "http://www.w3.org/Graphics/SVG/1.1/DTD/svg11.dtd">
<svg version="1.1" id="レイヤー_1" xmlns="http://www.w3.org/2000/svg" xmlns:xlink="http://www.w3.org/1999/xlink" x="0px"
	 y="0px" width="160px" height="284px" viewBox="0 0 160 284" enable-background="new 0 0 160 284" xml:space="preserve">
<g>
	<path fill="#F0DDC7" stroke="#000000" stroke-width="2" d="M91.961,147.68c14.666,8.941,31.127,45.066,34.559,48.59
		c2.144,2.199-5.871,2.438-7.315,1.354c-0.55-0.414-29.403-42.677-28.924-42.086c15.354,18.876,25.65,51.245,25.65,55.271
		c0,14.729-1.02,15.908-3.885,25.017c-3.548,11.283-7.563,26.644-9.596,34.397c-1.619,1.452-5.338,1.921-7.385,1.188
		c-4.688-1.68,2.35-27.729-5.056-45.43c-2.792-6.67-7.338-12.918-11.29-12.918c-6.141,0-9.181,8.748-10.098,12.17
		c-0.829,3.096-0.469,43.377-1.372,45.635c-0.741,1.857-6.155,1.721-7.134-0.633c-2.78-6.68-5.945-14.621-9.34-32.807
		c-0.734-3.93-4.477-23.344-3.394-28.944c3.519-18.179,17.045-49.325,19.597-51.773c0.58-0.556-3.447,3.987-10.992,15.319
		c-5.211,7.826-23.983-2.892-24.759-2.843c-1.658,0.104-10.241-1.128-8.813-2.756c5.916-6.744,25.422,5.038,28.994-0.662
		c4.639-7.401,1.96-2.378,6.149-8.878c4.89-7.587,14.423-12.065,21.831-12.065C83.124,144.827,88.765,145.731,91.961,147.68z"/>
	<path d="M91.961,147.68c3.229,1.969,7.878,6.697,8.575,7.775c-3.246,1.641-6.386,2.966-6.013,3.426
		c15.354,18.875,21.407,47.902,21.407,51.929c-2.676,9.566-14.18,19.237-25.921,15.173c-2.792-6.67-7.338-12.918-11.29-12.918
		c-6.141,0-9.181,8.748-10.098,12.17c-0.829,3.096-24.582-11.715-23.499-17.314c3.519-18.18,15.777-45.326,18.327-47.775
		c0.981-0.939-1.257-3.252-5.892-3.252c4.89-7.587,14.423-12.065,21.831-12.065C83.124,144.827,88.765,145.731,91.961,147.68z"/>
	<path fill="#D70051" stroke="#000000" stroke-width="2" d="M108.922,17.93c22.099,10.571,37.365,33.142,37.365,59.28
		c0,12.892-2.722,48.57-9.137,66.673c-4.856,0.238-33.285-2.901-59.427-2.635c-24.011,0.246-45.649,3.95-54.909,3.111
		c-9.858-22.381-7.833-50.823-7.833-67.149c0-36.27,29.393-65.672,65.653-65.672C90.761,11.538,100.354,13.833,108.922,17.93z"/>
	<g>
		<path opacity="0.45" fill="#FFFFFF" d="M118.006,45.321c-2.646,1.52-3.91,2.331-6.323,4.033c-3.312-4.674-5.19-6.941-9.359-11.236
			c2.594-1.96,3.957-2.9,6.795-4.674C113.106,38.02,114.891,40.415,118.006,45.321z"/>
		<path opacity="0.45" fill="#FFFFFF" d="M126.781,38.534c-2.987,1.256-4.43,1.944-7.198,3.417
			c-2.471-3.872-3.844-5.773-6.853-9.453c2.924-1.673,4.444-2.459,7.599-3.911C123.184,32.479,124.476,34.479,126.781,38.534z"/>
	</g>
	<path fill="#F4DAC1" stroke="#000000" stroke-width="2" d="M137.378,91.072c0,34.178-25.771,56.186-57.562,56.186
		c-31.789,0-57.561-22.008-57.561-56.186c0-34.179,26.185-46.481,57.974-46.481C112.02,44.591,137.378,56.893,137.378,91.072z"/>
	<path d="M75.576,132.062c1.116,1.72,2.856,2.827,4.813,2.827c1.958,0,3.697-1.107,4.814-2.827c-1.35,0.793-3.014,1.262-4.814,1.262
		S76.925,132.854,75.576,132.062z"/>
	<path d="M121.891,102.715c0,0-8.202,13.675-15.978,13.675c-7.776,0-11.687-3.621-13.665-9.11
		c-2.245-6.237,5.889-14.898,13.665-14.898C113.688,92.382,121.891,102.715,121.891,102.715z"/>
	<path fill="#FFFFFF" d="M118.537,104.242c0,0-7.287,12.148-14.192,12.148c-6.907,0-10.382-3.217-12.139-8.093
		c-1.995-5.54,5.231-13.235,12.139-13.235C111.25,95.063,118.537,104.242,118.537,104.242z"/>
	<path fill="#40220F" stroke="#000000" stroke-width="3" d="M111.229,104.879c0,3.749-3.253,6.783-7.27,6.783
		c-4.014,0-7.27-3.034-7.27-6.783c0-3.745,3.256-6.783,7.27-6.783C107.977,98.096,111.229,101.134,111.229,104.879z"/>
	<ellipse cx="103.96" cy="104.331" rx="2.819" ry="2.618"/>
	<ellipse opacity="0.9" fill="#FFFFFF" cx="107.482" cy="103.452" rx="2.116" ry="1.973"/>
	<path d="M38.252,102.715c0,0,8.202,13.675,15.977,13.675c7.775,0,11.688-3.621,13.664-9.11c2.246-6.237-5.889-14.898-13.664-14.898
		C46.454,92.382,38.252,102.715,38.252,102.715z"/>
	<path fill="#FFFFFF" d="M41.604,104.242c0,0,7.287,12.148,14.193,12.148c6.905,0,10.382-3.217,12.137-8.093
		c1.997-5.54-5.231-13.235-12.137-13.235C48.892,95.063,41.604,104.242,41.604,104.242z"/>
	<path fill="#40220F" stroke="#000000" stroke-width="3" d="M48.911,104.879c0,3.749,3.254,6.783,7.271,6.783
		c4.015,0,7.271-3.034,7.271-6.783c0-3.745-3.256-6.783-7.271-6.783C52.165,98.096,48.911,101.134,48.911,104.879z"/>
	<ellipse cx="56.182" cy="104.331" rx="2.818" ry="2.618"/>
	<ellipse opacity="0.9" fill="#FFFFFF" cx="58.999" cy="103.452" rx="2.115" ry="1.973"/>
	<ellipse opacity="0.48" fill="#E60012" cx="109.81" cy="123.061" rx="7.085" ry="2.276"/>
	<path d="M113.202,87.23c-2.27-1.875-5.856-3.088-9.896-3.088c-5.288,0-9.801,2.078-11.596,5.005
		c3.249-2.091,7.746-3.385,12.718-3.385C107.616,85.763,110.608,86.298,113.202,87.23z"/>
	<ellipse opacity="0.48" fill="#E60012" cx="50.775" cy="123.061" rx="7.085" ry="2.276"/>
	<path d="M47.383,87.23c2.27-1.875,5.857-3.088,9.896-3.088c5.288,0,9.801,2.078,11.596,5.005
		c-3.248-2.091-7.745-3.385-12.718-3.385C52.969,85.763,49.979,86.298,47.383,87.23z"/>
	<path fill="#D70051" stroke="#000000" stroke-width="2" d="M64.06,60.284c-36.049,29.252-21.852,70.643-6.533,94.605
		c-24.66-6.845-43.714-40.456-38.856-78.112C21.182,57.297,39.161,41.3,64.438,41.3C89.717,41.3,80.908,46.611,64.06,60.284z"/>
	<path opacity="0.45" fill="#FFFFFF" d="M64.656,42.235C45.019,41.56,22.414,57.637,19.96,76.396
		c-4.744,36.259,9.919,68.621,34.003,75.213C34.496,134.905,9.016,90.722,36.275,62.164c0.9,1.933,3.149,3.303,5.79,3.303
		c3.433,0,6.214-2.316,6.214-5.176c0-2.231-1.695-4.126-4.069-4.854C61.124,44.132,53.913,47.006,64.656,42.235z"/>
	<path fill="#D70051" stroke="#000000" stroke-width="2" d="M96.719,60.284c36.05,29.252,21.853,70.643,6.532,94.605
		c24.661-6.845,43.716-40.456,38.857-78.112C139.598,57.297,121.617,41.3,96.341,41.3C71.062,41.3,79.87,46.611,96.719,60.284z"/>
	<path opacity="0.45" fill="#FFFFFF" d="M96.122,42.235c19.638-0.676,42.242,15.401,44.698,34.16
		c4.742,36.259-9.919,68.621-34.003,75.213c19.465-16.703,44.947-60.886,17.688-89.444c-0.902,1.933-3.152,3.303-5.792,3.303
		c-3.431,0-6.216-2.316-6.216-5.176c0-2.231,1.697-4.126,4.073-4.854C99.654,44.132,106.864,47.006,96.122,42.235z"/>
	
		<rect x="43.464" y="195.1" transform="matrix(0.957 0.2902 -0.2902 0.957 64.491 -7.0404)" fill="#FFFFFF" stroke="#000000" stroke-width="2" width="25.046" height="37.709"/>
	
		<rect x="50.582" y="193.516" transform="matrix(0.9897 0.1429 -0.1429 0.9897 31.2292 -6.8231)" fill="#FFFFFF" stroke="#000000" stroke-width="2" width="25.047" height="40.879"/>
	
		<rect x="63.716" y="195.897" transform="matrix(0.9985 0.0547 -0.0547 0.9985 11.948 -3.8465)" fill="#FFFFFF" stroke="#000000" stroke-width="2" width="25.047" height="40.879"/>
	
		<rect x="76.008" y="194.972" transform="matrix(0.9957 -0.0922 0.0922 0.9957 -19.4769 9.0766)" fill="#FFFFFF" stroke="#000000" stroke-width="2" width="25.048" height="40.879"/>
	<polygon fill="#FFFFFF" stroke="#000000" stroke-width="2" points="122.384,228.804 109.089,200.752 106.945,191.26 
		82.513,196.775 91.516,236.65 105.861,233.412 107.11,236.046 	"/>
	<polygon fill="#FFFFFF" stroke="#000000" stroke-width="2" points="126.473,221.937 111.994,230.662 96.69,198.067 107.989,191.26 
			"/>
	<path fill="#FFFFFF" stroke="#000000" stroke-width="2" d="M112.712,191.749c0,4.269-14.879,7.73-33.234,7.73
		c-18.356,0-33.235-3.462-33.235-7.73s14.879-1.984,33.235-1.984C97.833,189.765,112.712,187.48,112.712,191.749z"/>
</g>
</svg>
