<?xml version="1.0" encoding="utf-8"?>
<!-- Generator: Adobe Illustrator 14.0.0, SVG Export Plug-In . SVG Version: 6.00 Build 43363)  -->
<!DOCTYPE svg PUBLIC "-//W3C//DTD SVG 1.1//EN" "http://www.w3.org/Graphics/SVG/1.1/DTD/svg11.dtd">
<svg version="1.1" id="レイヤー_1" xmlns="http://www.w3.org/2000/svg" xmlns:xlink="http://www.w3.org/1999/xlink" x="0px"
	 y="0px" width="320px" height="284px" viewBox="0 0 320 284" enable-background="new 0 0 320 284" xml:space="preserve">
<g>
	<path d="M6.214,33.605c0-0.469,0.128-0.703,0.387-0.703c0.047,0,0.117,0.023,0.211,0.07c0.937,0.656,1.781,0.984,2.531,0.984
		c1.289,0,4.171-0.339,8.648-1.02c0.023-0.539,0.035-1.23,0.035-2.074c0-1.547-0.305-2.707-0.914-3.48
		c-0.188,0.023-0.639,0.118-1.354,0.281c-0.715,0.164-1.389,0.246-2.021,0.246s-1.383-0.439-2.25-1.318
		c-0.867-0.879-1.301-1.752-1.301-2.619c0-0.188,0.105-0.281,0.316-0.281c0.093,0,0.164,0.012,0.211,0.035
		c0.773,0.563,1.64,0.844,2.602,0.844c2.25,0,5.085-0.352,8.508-1.055c1.102-0.234,2.139-0.486,3.111-0.756
		c0.972-0.269,1.529-0.404,1.67-0.404c1.102,0,2.044,0.206,2.83,0.615c0.785,0.41,1.178,0.874,1.178,1.389
		c0,0.867-0.703,1.406-2.109,1.617c-0.586,0.07-2.039,0.241-4.359,0.51c-2.32,0.27-3.844,0.452-4.57,0.545
		c0.796,0.258,1.459,0.592,1.986,1.002c0.527,0.41,0.791,0.75,0.791,1.02c0,0.27-0.105,0.592-0.316,0.967
		c-0.211,0.375-0.346,0.698-0.404,0.967c-0.059,0.27-0.135,0.779-0.229,1.529c4.57-0.68,7.148-1.102,7.734-1.266
		c0.585-0.164,1.002-0.281,1.248-0.352s0.439-0.105,0.58-0.105c0.82,0,1.752,0.241,2.795,0.721c1.042,0.48,1.564,1.061,1.564,1.74
		c0,1.078-0.527,1.617-1.582,1.617l-5.73-0.281c-1.641,0-3.902,0.211-6.785,0.633c-0.118,1.828-0.176,3.352-0.176,4.57
		c0,1.219,0.158,2.034,0.475,2.443c0.316,0.41,1.119,0.615,2.408,0.615c1.289,0,2.343-0.058,3.164-0.176
		c0.82-0.117,1.436-0.234,1.846-0.352c0.41-0.117,0.673-0.176,0.791-0.176c1.055,0,1.921,0.217,2.602,0.65
		c0.68,0.434,1.02,0.92,1.02,1.459c0,0.867-0.598,1.465-1.793,1.793c-1.547,0.375-3.475,0.563-5.783,0.563
		c-2.309,0-3.908-0.105-4.799-0.316c-0.891-0.211-1.559-0.598-2.004-1.16c-0.445-0.563-0.733-1.178-0.861-1.846
		c-0.129-0.668-0.193-1.811-0.193-3.428s0.012-3,0.035-4.148c-2.109,0.399-3.504,0.715-4.184,0.949
		c-0.68,0.234-1.236,0.428-1.67,0.58c-0.434,0.153-0.844,0.299-1.23,0.439s-0.791,0.211-1.213,0.211c-0.821,0-1.6-0.445-2.338-1.336
		C6.583,35.668,6.214,34.684,6.214,33.605z"/>
	<path d="M42.46,32.34c0-0.726,0.176-1.09,0.527-1.09c0.234,0,0.55,0.211,0.949,0.633c0.703,0.844,1.617,1.266,2.742,1.266
		c1.664,0,4.564-0.117,8.701-0.352c4.136-0.234,6.797-0.398,7.98-0.492c1.183-0.093,2.185-0.205,3.006-0.334
		c0.82-0.128,1.359-0.193,1.617-0.193c1.078,0,2.004,0.246,2.777,0.738s1.16,1.113,1.16,1.863c0,1.008-0.773,1.512-2.32,1.512
		l-5.098-0.105c-1.313,0-3.504,0.094-6.574,0.281c-3.071,0.188-5.18,0.346-6.328,0.475c-1.148,0.129-2.127,0.352-2.936,0.668
		s-1.412,0.475-1.811,0.475c-0.844,0-1.788-0.598-2.83-1.793C42.981,34.695,42.46,33.512,42.46,32.34z"/>
	<path d="M79.726,29.141c0-0.281,0.128-0.422,0.387-0.422c3.046,0,5.542,0.691,7.488,2.074c1.055,0.75,1.582,1.617,1.582,2.602
		c0,0.492-0.146,0.926-0.439,1.301c-0.293,0.375-0.721,0.563-1.283,0.563s-1.025-0.117-1.389-0.352
		c-0.364-0.234-0.803-0.645-1.318-1.23c-0.516-0.585-0.938-1.02-1.266-1.301c-1.5-1.429-2.695-2.414-3.586-2.953
		C79.784,29.375,79.726,29.281,79.726,29.141z M80.604,41.129c0-0.258,0.128-0.387,0.387-0.387c0.093,0,0.176,0.035,0.246,0.105
		c1.242,1.313,2.25,1.969,3.023,1.969c1.969,0,5.461-1.74,10.477-5.221c5.015-3.48,8.977-6.955,11.883-10.424
		c0.047-0.07,0.141-0.105,0.281-0.105c0.304,0,0.457,0.141,0.457,0.422c0,0.07-0.012,0.129-0.035,0.176
		c-1.665,3.282-4.184,6.527-7.559,9.738c-3.375,3.211-6.984,5.954-10.828,8.227c-0.211,0.118-0.61,0.445-1.195,0.984
		c-0.586,0.539-1.102,0.809-1.547,0.809c-1.336,0-2.602-0.65-3.797-1.951S80.604,42.723,80.604,41.129z M84.015,21.969
		c0-0.304,0.152-0.457,0.457-0.457c1.945,0.047,3.832,0.387,5.66,1.02c0.961,0.329,1.734,0.797,2.32,1.406
		c0.585,0.61,0.879,1.236,0.879,1.881c0,0.645-0.158,1.155-0.475,1.529c-0.316,0.375-0.721,0.563-1.213,0.563
		s-0.909-0.1-1.248-0.299c-0.34-0.199-0.826-0.627-1.459-1.283c-1.547-1.688-3.117-3.023-4.711-4.008
		C84.085,22.227,84.015,22.109,84.015,21.969z"/>
	<path d="M224.814,42.746c0-0.164,0.082-0.246,0.246-0.246c0.047,0,0.094,0.023,0.141,0.07c0.75,0.703,1.494,1.055,2.232,1.055
		s4.189-0.304,10.354-0.914c0.188-1.359,0.352-2.824,0.492-4.395c-4.383,0.305-7.266,0.715-8.648,1.23
		c-0.445,0.164-0.785,0.246-1.02,0.246c-0.656,0-1.277-0.41-1.863-1.23c-0.586-0.82-0.879-1.652-0.879-2.496
		c0-0.188,0.094-0.281,0.281-0.281c0.07,0,0.117,0.012,0.141,0.035c0.656,0.516,1.236,0.773,1.74,0.773s1.371-0.058,2.602-0.176
		c1.23-0.117,2.643-0.258,4.236-0.422c1.594-0.164,2.824-0.281,3.691-0.352c0.211-1.945,0.316-3.064,0.316-3.357
		c0-0.293-0.094-0.439-0.281-0.439c-2.531,0-5.191,0.329-7.98,0.984c-0.352,0.07-0.82,0.217-1.406,0.439
		c-0.586,0.223-1.008,0.334-1.266,0.334c-0.703,0-1.342-0.445-1.916-1.336c-0.574-0.891-0.861-1.758-0.861-2.602
		c0-0.352,0.094-0.527,0.281-0.527c0.117,0,0.211,0.035,0.281,0.105c0.68,0.61,1.406,0.914,2.18,0.914s2.32-0.105,4.641-0.316
		s3.949-0.387,4.887-0.527c0.305-0.047,0.68-0.223,1.125-0.527c0.445-0.304,0.809-0.457,1.09-0.457c0.563,0,1.43,0.422,2.602,1.266
		s1.758,1.57,1.758,2.18c0,0.281-0.211,0.627-0.633,1.037c-0.422,0.41-0.656,0.791-0.703,1.143
		c-0.211,1.313-0.762,4.266-1.652,8.859c0.469,0.234,0.891,0.545,1.266,0.932s0.563,0.75,0.563,1.09c0,0.34-0.135,0.639-0.404,0.896
		c-0.27,0.258-0.551,0.387-0.844,0.387s-1.031-0.088-2.215-0.264s-2.115-0.264-2.795-0.264c-1.852,0-3.721,0.241-5.607,0.721
		c-1.887,0.48-2.924,0.721-3.111,0.721c-0.82,0-1.535-0.469-2.145-1.406C225.119,44.692,224.814,43.73,224.814,42.746z"/>
	<path d="M254.732,40.32c0-0.117,0.047-0.229,0.141-0.334s0.193-0.158,0.299-0.158s0.193,0.035,0.264,0.105
		c1.289,1.289,2.297,1.934,3.023,1.934c1.172,0,3.164-0.832,5.977-2.496c2.813-1.664,5.725-3.738,8.736-6.223
		c3.012-2.484,5.338-4.769,6.979-6.855c0.07-0.093,0.176-0.141,0.316-0.141c0.281,0,0.422,0.141,0.422,0.422
		c0,0.07-0.012,0.129-0.035,0.176c-3.68,6.938-9.621,12.926-17.824,17.965c-0.234,0.141-0.621,0.475-1.16,1.002
		s-0.996,0.791-1.371,0.791c-1.523,0-2.836-0.633-3.938-1.898S254.85,41.915,254.732,40.32z M254.838,23.094
		c0-0.281,0.164-0.422,0.492-0.422c1.523,0,3.064,0.287,4.623,0.861c1.559,0.575,2.848,1.336,3.867,2.285s1.529,1.904,1.529,2.865
		c0,0.633-0.205,1.172-0.615,1.617c-0.41,0.445-0.943,0.668-1.6,0.668c-0.938,0-1.828-0.598-2.672-1.793
		c-0.727-0.984-1.23-1.664-1.512-2.039c-0.797-1.055-2.121-2.308-3.973-3.762C254.885,23.305,254.838,23.211,254.838,23.094z"/>
	<path d="M287.393,35.996c0-2.554,0.639-4.934,1.916-7.137c1.277-2.203,3.076-3.984,5.396-5.344c2.32-1.359,4.816-2.039,7.488-2.039
		s5.021,0.469,7.049,1.406c2.027,0.938,3.662,2.379,4.904,4.324c1.242,1.946,1.863,4.231,1.863,6.855
		c0,1.875-0.305,3.563-0.914,5.063c-1.148,2.742-3.199,4.805-6.152,6.188c-2.602,1.195-5.508,1.793-8.719,1.793
		c-0.164,0-0.246-0.083-0.246-0.246l0.105-0.105c3.914-1.125,6.879-2.795,8.895-5.01s3.023-4.927,3.023-8.139
		c0-3.211-0.92-5.689-2.76-7.436c-1.84-1.746-4.271-2.619-7.295-2.619c0.469,1.125,0.703,2.379,0.703,3.762
		c0,2.766-0.445,5.473-1.336,8.121c-0.891,2.649-2.098,4.822-3.621,6.521c-1.523,1.7-3.129,2.549-4.816,2.549
		c-0.773,0-1.459-0.24-2.057-0.721c-0.598-0.48-1.037-1.072-1.318-1.775c-0.023-0.093-0.246-0.492-0.668-1.195
		C287.85,39.125,287.369,37.52,287.393,35.996z M291.646,30.617c-0.609,1.43-0.914,2.865-0.914,4.307s0.258,2.678,0.773,3.709
		c0.516,1.032,1.102,1.547,1.758,1.547s1.383-0.381,2.18-1.143c0.797-0.761,1.582-1.77,2.355-3.023
		c0.773-1.253,1.424-2.848,1.951-4.781s0.791-3.932,0.791-5.994c0-0.961-0.188-1.441-0.563-1.441c-0.727,0-1.729,0.375-3.006,1.125
		c-1.277,0.75-2.332,1.529-3.164,2.338S292.256,29.188,291.646,30.617z"/>
	<path d="M6.741,77.957c0-2.086,0.867-4.189,2.602-6.311c1.734-2.121,3.844-3.756,6.328-4.904c0.093-1.031,0.234-2.308,0.422-3.832
		c-0.703,0.047-1.348,0.07-1.934,0.07c-1.547,0-2.842-0.269-3.885-0.809c-1.043-0.539-1.717-1.535-2.021-2.988v-0.035
		c0-0.093,0.047-0.141,0.141-0.141l0.07,0.035c0.844,0.727,2.461,1.09,4.852,1.09c1.266,0,2.308-0.047,3.129-0.141
		c0.141-1.031,0.211-1.98,0.211-2.848c0-0.867-0.176-1.447-0.527-1.74c-0.352-0.293-0.709-0.469-1.072-0.527
		c-0.364-0.058-0.545-0.164-0.545-0.316c0-0.152,0.24-0.369,0.721-0.65c0.48-0.281,0.932-0.422,1.354-0.422
		c1.125,0,2.068,0.27,2.83,0.809c0.761,0.54,1.143,1.113,1.143,1.723c0,0.375-0.141,0.861-0.422,1.459s-0.504,1.295-0.668,2.092
		c1.617-0.211,3.117-0.809,4.5-1.793c0.633-0.445,1.248-0.668,1.846-0.668s1.166,0.146,1.705,0.439
		c0.539,0.293,0.809,0.674,0.809,1.143c0,0.773-0.844,1.465-2.531,2.074c-1.688,0.61-3.938,1.195-6.75,1.758
		c-0.188,0.914-0.329,1.969-0.422,3.164c0.914-0.281,2.062-0.504,3.445-0.668l-0.141-1.512c0-0.093,0.07-0.141,0.211-0.141
		s0.346,0.158,0.615,0.475c0.269,0.316,0.451,0.674,0.545,1.072c0.234-0.023,0.574-0.035,1.02-0.035
		c2.835,0,5.232,0.768,7.189,2.303c1.957,1.535,2.936,3.662,2.936,6.381c0,1.688-0.357,3.176-1.072,4.465
		c-0.715,1.289-1.605,2.297-2.672,3.023c-1.067,0.727-2.326,1.324-3.779,1.793c-2.414,0.773-5.075,1.16-7.98,1.16
		c-0.141,0-0.211-0.059-0.211-0.176l0.07-0.105c3.773-0.75,6.674-2.115,8.701-4.096c2.027-1.98,3.041-4.131,3.041-6.451
		c0-1.945-0.65-3.475-1.951-4.588c-1.301-1.113-2.971-1.67-5.01-1.67c0,1.383-0.375,2.918-1.125,4.605
		c-0.75,1.688-1.77,3.305-3.059,4.852c0.047,0.141,0.164,0.41,0.352,0.809c0.188,0.398,0.281,0.809,0.281,1.23
		s-0.176,0.814-0.527,1.178s-0.809,0.545-1.371,0.545s-1.043-0.352-1.441-1.055c-2.18,1.758-4.324,2.637-6.434,2.637
		c-1.055,0-1.904-0.328-2.549-0.984C7.063,80.078,6.741,79.152,6.741,77.957z M11.716,72.578c-1.067,1.5-1.6,2.824-1.6,3.973
		s0.352,1.723,1.055,1.723c1.242,0,2.742-0.703,4.5-2.109c-0.211-1.008-0.316-2.115-0.316-3.322c0-1.207,0.047-2.466,0.141-3.779
		C14.042,69.906,12.782,71.079,11.716,72.578z M18.237,71.383c0,1.032,0.047,1.746,0.141,2.145c1.851-2.25,3.023-4.417,3.516-6.504
		c-1.477,0.164-2.614,0.422-3.41,0.773C18.319,69.156,18.237,70.352,18.237,71.383z"/>
	<path d="M42.952,76.129c-0.399-0.398-0.598-0.873-0.598-1.424c0-0.55,0.1-1.007,0.299-1.371c0.199-0.363,0.387-0.633,0.563-0.809
		s0.521-0.498,1.037-0.967c1.547-1.429,5.449-5.742,11.707-12.938c0.047-0.047,0.07-0.105,0.07-0.176s-0.129-0.105-0.387-0.105
		c-0.258,0-1.137,0.322-2.637,0.967c-1.5,0.645-2.566,1.178-3.199,1.6l-0.316,0.211c-0.211,0.094-0.533,0.141-0.967,0.141
		c-0.434,0-1.025-0.357-1.775-1.072c-0.75-0.715-1.125-1.523-1.125-2.426c0-0.902,0.117-1.354,0.352-1.354l0.246,0.141
		c0.422,0.633,0.984,0.949,1.688,0.949c1.477,0,3.738-0.492,6.785-1.477c0.563-0.188,1.049-0.41,1.459-0.668
		c0.41-0.258,0.744-0.387,1.002-0.387c0.703,0,1.529,0.381,2.479,1.143c0.949,0.762,1.424,1.366,1.424,1.811
		c0,0.445-0.153,0.744-0.457,0.896c-0.305,0.153-0.492,0.264-0.563,0.334c-4.102,3.656-7.043,6.492-8.824,8.508
		c0,0.023,0.229-0.058,0.686-0.246c0.457-0.188,0.908-0.363,1.354-0.527c1.406-0.515,3.07-0.773,4.992-0.773
		c2.367,0,4.301,0.756,5.801,2.268c1.5,1.512,2.25,3.393,2.25,5.643c0,2.719-1.084,4.975-3.252,6.768
		c-2.168,1.793-4.987,2.689-8.455,2.689c-2.625,0-4.57-0.586-5.836-1.758c-0.703-0.656-1.061-1.547-1.072-2.672
		c-0.012-1.125,0.41-1.963,1.266-2.514c0.855-0.551,1.928-0.826,3.217-0.826c2.695,0,4.676,1.395,5.941,4.184
		c1.266-0.375,2.338-1.096,3.217-2.162s1.318-2.396,1.318-3.99s-0.527-2.895-1.582-3.902c-1.055-1.007-2.403-1.512-4.043-1.512
		c-2.18,0-4.242,0.65-6.188,1.951c-1.946,1.301-3.445,2.877-4.5,4.729c-0.633,1.148-1.301,1.723-2.004,1.723
		C43.808,76.727,43.351,76.527,42.952,76.129z M50.124,78.871c0,1.125,1.266,1.688,3.797,1.688c0.281,0,0.609-0.023,0.984-0.07
		c-0.281-0.867-0.744-1.523-1.389-1.969c-0.645-0.445-1.243-0.668-1.793-0.668c-0.551,0-0.955,0.1-1.213,0.299
		C50.252,78.35,50.124,78.59,50.124,78.871z"/>
	<path d="M230.369,81.965c0.281-1.898,0.422-4.559,0.422-7.98v-9.809c0-3.328-0.141-5.988-0.422-7.98V56.16
		c0-0.117,0.047-0.229,0.141-0.334s0.199-0.158,0.316-0.158h3.727c0.117,0,0.217,0.047,0.299,0.141
		c0.082,0.094,0.123,0.199,0.123,0.316v0.07c-0.258,1.688-0.387,4.348-0.387,7.98v2.848h13.852v-2.848
		c0-3.492-0.129-6.152-0.387-7.98V56.16c0-0.117,0.047-0.229,0.141-0.334s0.199-0.158,0.316-0.158h3.727
		c0.258,0,0.387,0.153,0.387,0.457v0.07c-0.258,1.688-0.387,4.348-0.387,7.98v9.809c0,3.328,0.141,5.988,0.422,7.98V82
		c0,0.117-0.047,0.223-0.141,0.316s-0.199,0.141-0.316,0.141h-3.762c-0.258,0-0.387-0.141-0.387-0.422v-0.07
		c0.258-1.758,0.387-4.418,0.387-7.98v-4.5h-13.852v4.5c0,3.492,0.129,6.152,0.387,7.98V82c0,0.117-0.047,0.223-0.141,0.316
		s-0.199,0.141-0.316,0.141h-3.727c-0.281,0-0.422-0.141-0.422-0.422V81.965z"/>
	<path d="M259.443,82v-0.035c0.281-1.898,0.422-4.559,0.422-7.98v-9.809c0-3.328-0.141-5.988-0.422-7.98V56.16
		c0-0.117,0.047-0.229,0.141-0.334s0.199-0.158,0.316-0.158l1.898,0.141l5.73-0.281c1.805,0,3.369,0.234,4.693,0.703
		c1.324,0.469,2.326,1.09,3.006,1.863c1.313,1.454,1.969,3.124,1.969,5.01c0,1.887-0.75,3.662-2.25,5.326
		c-0.773,0.844-1.846,1.529-3.217,2.057s-2.877,0.791-4.518,0.791s-2.824-0.093-3.551-0.281v2.988c0,3.492,0.129,6.152,0.387,7.98
		V82c0,0.117-0.047,0.223-0.141,0.316s-0.199,0.141-0.316,0.141H259.9c-0.117,0-0.223-0.047-0.316-0.141S259.443,82.117,259.443,82z
		 M263.662,68.57c0.68,0.188,1.881,0.281,3.604,0.281s3.1-0.427,4.131-1.283c1.031-0.855,1.547-2.42,1.547-4.693
		c0-2.273-0.844-3.738-2.531-4.395c-0.891-0.352-1.98-0.527-3.27-0.527s-2.191,0.118-2.707,0.352
		c-0.516,0.234-0.773,0.586-0.773,1.055V68.57z"/>
	<path d="M294.248,59.957c0-1.851,0.826-3.328,2.479-4.43c1.652-1.102,3.674-1.652,6.064-1.652s4.295,0.592,5.713,1.775
		c1.418,1.184,2.127,2.772,2.127,4.764c0,1.5-0.551,2.836-1.652,4.008c-0.797,0.797-1.658,1.542-2.584,2.232
		c-0.926,0.691-1.547,1.19-1.863,1.494c-0.316,0.305-0.633,0.821-0.949,1.547c-0.316,0.727-0.475,1.506-0.475,2.338
		c0,0.832-0.111,1.406-0.334,1.723s-0.592,0.475-1.107,0.475c-0.891,0-1.336-0.703-1.336-2.109c0-2.086,0.434-3.762,1.301-5.027
		c0.445-0.633,1.02-1.277,1.723-1.934c1.57-1.383,2.355-3.059,2.355-5.027c0-1.336-0.293-2.455-0.879-3.357
		c-0.586-0.902-1.395-1.354-2.426-1.354s-1.934,0.223-2.707,0.668c-0.773,0.445-1.16,0.938-1.16,1.477
		c0,0.54,0.064,1.067,0.193,1.582c0.129,0.516,0.193,1.037,0.193,1.564s-0.217,0.99-0.65,1.389
		c-0.434,0.399-0.984,0.598-1.652,0.598s-1.23-0.234-1.688-0.703C294.477,61.527,294.248,60.848,294.248,59.957z M299.539,81.578
		c-0.598-0.563-0.896-1.254-0.896-2.074s0.299-1.529,0.896-2.127s1.33-0.896,2.197-0.896s1.611,0.287,2.232,0.861
		s0.932,1.271,0.932,2.092s-0.311,1.523-0.932,2.109s-1.365,0.879-2.232,0.879S300.137,82.141,299.539,81.578z"/>
</g>
<g>
	<path d="M20.83,147.296c0-0.891,0.188-1.656,0.563-2.297c0.031-0.047,0.07-0.07,0.117-0.07c0.109,0,0.164,0.055,0.164,0.164
		c0,1.563,0.641,2.703,1.922,3.422c1.093,0.609,2.516,0.914,4.266,0.914c1.75,0,3.43-0.234,5.039-0.703
		c0.25-0.109,0.547-0.164,0.891-0.164c0.343,0,0.691,0.137,1.043,0.41s0.527,0.613,0.527,1.02c0,1.391-2.094,2.086-6.281,2.086
		C23.58,152.077,20.83,150.483,20.83,147.296z M22.564,134.71c0-0.125,0.055-0.188,0.164-0.188l0.117,0.023
		c0.859,0.344,2.086,0.516,3.68,0.516l4.078-0.211c0.859,0,1.574,0.156,2.145,0.469c0.57,0.313,0.855,0.734,0.855,1.266
		c0,0.266-0.109,0.52-0.328,0.762c-0.219,0.242-0.492,0.363-0.82,0.363l-0.914-0.047c-1.016,0.016-2.695,0.523-5.039,1.523
		c-0.782,0.344-1.195,0.512-1.242,0.504s-0.07-0.059-0.07-0.152c0-0.016,0.27-0.258,0.809-0.727s0.949-0.809,1.23-1.02
		s0.422-0.332,0.422-0.363s-0.032-0.047-0.094-0.047c-2.719-0.063-4.375-0.914-4.969-2.555
		C22.572,134.78,22.564,134.741,22.564,134.71z M33.017,133.421c0-0.156,0.117-0.234,0.352-0.234c1.406,0.406,2.406,0.891,3,1.453
		c0.453,0.375,0.68,0.797,0.68,1.266c0,0.25-0.079,0.469-0.234,0.656c-0.156,0.188-0.391,0.281-0.703,0.281
		c-0.313,0-0.688-0.359-1.125-1.078c-0.438-0.719-1.07-1.453-1.898-2.203C33.041,133.515,33.017,133.468,33.017,133.421z
		 M35.173,131.874c0-0.156,0.109-0.234,0.328-0.234c2.531,0.531,3.797,1.398,3.797,2.602c0,0.563-0.266,0.844-0.797,0.844
		c-0.219,0-0.407-0.07-0.563-0.211c-0.156-0.141-0.367-0.391-0.633-0.75c-0.578-0.781-1.266-1.484-2.063-2.109
		C35.197,131.968,35.173,131.921,35.173,131.874z"/>
	<path d="M41.876,151.163c3.812-0.75,6.617-1.82,8.414-3.211h-7.922v-1.805h9.281v-1.805h2.18v1.805h9.469v1.805h-8.016
		c1.843,1.359,4.695,2.414,8.555,3.164c-0.391,0.391-0.852,1.078-1.383,2.063c-3.719-0.969-6.594-2.383-8.625-4.242v4.5h-2.18
		v-4.383c-2.016,1.813-4.828,3.18-8.438,4.102C42.681,152.187,42.236,151.522,41.876,151.163z M42.767,139.304v-1.758h6.281
		c0.953-1.313,1.445-1.984,1.477-2.016l2.039,0.586c-0.266,0.375-0.618,0.852-1.055,1.43h11.414v1.758h-4.313
		c-0.531,1.156-1.274,2.109-2.227,2.859c2.64,0.703,4.539,1.273,5.695,1.711l-1.547,1.523c-1.344-0.563-3.422-1.234-6.234-2.016
		c-2.172,0.938-5.578,1.57-10.219,1.898c-0.032-0.219-0.191-0.547-0.48-0.984c-0.29-0.438-0.442-0.672-0.457-0.703
		c3.578-0.219,6.281-0.555,8.109-1.008c-0.891-0.234-1.938-0.477-3.141-0.727l-0.398,0.469l-2.039-0.633
		c0.359-0.391,1.031-1.188,2.016-2.391H42.767z M43.001,137.054v-3.445h8.695v-1.664h2.18v1.664h8.813v3.445h-2.086v-1.617H45.017
		v1.617H43.001z M49.212,140.499c1.562,0.297,3.156,0.641,4.781,1.031c0.953-0.516,1.711-1.258,2.273-2.227H50.15
		c-0.109,0.141-0.266,0.344-0.469,0.609C49.478,140.179,49.321,140.374,49.212,140.499z"/>
	<path d="M67.4,153.507v-17.625h8.297v-3.938h2.25v3.938h8.32v14.906c0,0.656-0.09,1.164-0.27,1.523
		c-0.18,0.359-0.48,0.617-0.902,0.773c-0.609,0.266-2.071,0.398-4.383,0.398c-0.094-0.656-0.344-1.391-0.75-2.203
		c1.328,0.063,2.188,0.094,2.578,0.094c0.39,0,0.707-0.012,0.949-0.035c0.242-0.023,0.406-0.074,0.492-0.152
		c0.085-0.078,0.129-0.219,0.129-0.422v-12.773h-6.188c-0.047,0.969-0.172,1.93-0.375,2.883c2.984,2.703,5.054,4.766,6.211,6.188
		l-1.781,1.43c-1.11-1.469-2.813-3.305-5.109-5.508c-1.031,2.406-2.844,4.367-5.438,5.883c-0.141-0.234-0.363-0.516-0.668-0.844
		s-0.598-0.594-0.879-0.797c2.359-1.234,3.929-2.727,4.711-4.477c0.656-1.484,1.016-3.07,1.078-4.758H69.58v15.516H67.4z"/>
	<path d="M236.103,133.843c0-0.391,0.594-0.586,1.781-0.586c0.359,0,0.891,0.223,1.594,0.668s1.055,0.91,1.055,1.395
		c0,0.156-0.074,0.41-0.223,0.762s-0.254,0.723-0.316,1.113c-0.516,3.406-0.773,6.367-0.773,8.883c0,1.422,0.258,2.48,0.773,3.176
		s1.469,1.043,2.859,1.043s2.84-0.383,4.348-1.148s2.887-1.898,4.137-3.398c0.031-0.031,0.063-0.047,0.094-0.047
		c0.094,0,0.141,0.055,0.141,0.164c-0.375,1.656-1.398,3.211-3.07,4.664s-3.563,2.18-5.672,2.18s-3.594-0.563-4.453-1.688
		s-1.289-2.852-1.289-5.18c0-0.984,0.055-2.527,0.164-4.629s0.164-3.84,0.164-5.215c-0.016-0.406-0.086-0.75-0.211-1.031
		s-0.273-0.469-0.445-0.563C236.321,134.14,236.103,133.952,236.103,133.843z"/>
	<path d="M257.606,137.511c-0.289-0.383-0.434-0.672-0.434-0.867s0.047-0.293,0.141-0.293l0.094,0.023
		c0.875,0.516,2.297,0.773,4.266,0.773c0.828,0,1.57-0.023,2.227-0.07c-0.031-1.219-0.094-2.086-0.188-2.602
		c-0.047-0.219-0.277-0.41-0.691-0.574s-0.621-0.316-0.621-0.457s0.156-0.277,0.469-0.41s0.586-0.199,0.82-0.199
		c0.703,0,1.34,0.168,1.91,0.504s0.855,0.684,0.855,1.043c0,0.109-0.051,0.27-0.152,0.48s-0.18,0.434-0.234,0.668
		s-0.082,0.695-0.082,1.383c0.938-0.094,1.918-0.316,2.941-0.668s1.656-0.527,1.898-0.527s0.527,0.121,0.855,0.363
		s0.492,0.512,0.492,0.809c0,0.828-2.063,1.5-6.188,2.016c0,0.609,0.016,1.555,0.047,2.836c1.625-0.234,2.438-0.469,2.438-0.703
		c0-0.078-0.152-0.289-0.457-0.633s-0.457-0.531-0.457-0.563s0.02-0.047,0.059-0.047s0.438,0.109,1.195,0.328
		s1.309,0.328,1.652,0.328s0.656,0.129,0.938,0.387s0.422,0.563,0.422,0.914s-0.406,0.684-1.219,0.996
		c-1.297,0.5-2.805,0.836-4.523,1.008c0.016,0.359,0.035,0.883,0.059,1.57s0.043,1.227,0.059,1.617
		c1.688,0.359,3.25,1.031,4.688,2.016c0.781,0.531,1.172,1.102,1.172,1.711c0,0.359-0.102,0.645-0.305,0.855
		s-0.461,0.316-0.773,0.316s-0.625-0.156-0.938-0.469c-1.359-1.203-2.625-1.969-3.797-2.297c0,1.109-0.391,1.984-1.172,2.625
		s-1.922,0.961-3.422,0.961c-1.078,0-1.996-0.266-2.754-0.797s-1.137-1.289-1.137-2.273s0.426-1.738,1.277-2.262
		s1.98-0.785,3.387-0.785c0.578,0,1.117,0.031,1.617,0.094c-0.047-1.516-0.078-2.406-0.094-2.672
		c-0.563,0.031-1.117,0.047-1.664,0.047c-2.891,0-4.336-0.648-4.336-1.945c0-0.281,0.07-0.535,0.211-0.762s0.281-0.387,0.422-0.48
		s0.234-0.141,0.281-0.141s0.07,0.086,0.07,0.258c0,0.75,0.93,1.125,2.789,1.125c0.984,0,1.727-0.031,2.227-0.094
		c0-0.5-0.016-1.469-0.047-2.906c-0.719,0.031-1.367,0.047-1.945,0.047c-1.5,0-2.633-0.234-3.398-0.703
		C258.212,138.194,257.896,137.894,257.606,137.511z M259.376,149.499c0,0.875,0.781,1.32,2.344,1.336
		c0.75,0,1.324-0.172,1.723-0.516s0.598-0.945,0.598-1.805c-0.813-0.203-1.566-0.305-2.262-0.305s-1.27,0.105-1.723,0.316
		S259.376,149.062,259.376,149.499z"/>
	<path d="M278.571,139.151c-0.578-0.508-0.867-1.039-0.867-1.594s0.078-0.832,0.234-0.832l0.117,0.07
		c0.297,0.391,0.926,0.582,1.887,0.574s1.801-0.043,2.52-0.105c2.438-0.25,4.125-0.406,5.063-0.469l-0.023-1.43
		c0-0.641-0.121-1.117-0.363-1.43s-0.484-0.508-0.727-0.586s-0.363-0.141-0.363-0.188c0-0.172,0.125-0.336,0.375-0.492
		s0.578-0.234,0.984-0.234c0.844,0,1.527,0.18,2.051,0.539s0.785,0.789,0.785,1.289c0,0.125-0.094,0.383-0.281,0.773
		s-0.281,0.914-0.281,1.57c1.75-0.125,3.094-0.258,4.031-0.398s1.578-0.211,1.922-0.211s0.766,0.191,1.266,0.574
		s0.75,0.727,0.75,1.031s-0.105,0.566-0.316,0.785s-0.473,0.328-0.785,0.328c-0.047,0-0.566-0.059-1.559-0.176
		s-2.012-0.176-3.059-0.176s-1.805,0.023-2.273,0.07c-0.047,0.766-0.086,1.961-0.117,3.586c0.609,1.141,0.914,2.352,0.914,3.633
		c0,2.375-0.742,4.227-2.227,5.555c-1.375,1.266-2.758,1.977-4.148,2.133c-0.109,0-0.164-0.039-0.164-0.117l0.047-0.07
		c0.766-0.406,1.594-1.109,2.484-2.109c0.469-0.531,0.859-1.152,1.172-1.863s0.469-1.434,0.469-2.168
		c-0.078,0.219-0.273,0.414-0.586,0.586s-0.672,0.258-1.078,0.258c-0.844,0-1.547-0.34-2.109-1.02s-0.844-1.488-0.844-2.426
		s0.344-1.859,1.031-2.766s1.492-1.359,2.414-1.359c0.266,0,0.492,0.055,0.68,0.164l-0.023-1.852c-2.828,0.234-4.828,0.586-6,1.055
		c-0.438,0.172-0.813,0.258-1.125,0.258C279.774,139.913,279.149,139.659,278.571,139.151z M285.673,142.526
		c-0.328,0.492-0.492,0.988-0.492,1.488s0.141,0.922,0.422,1.266s0.594,0.516,0.938,0.516c0.75,0,1.125-0.82,1.125-2.461
		c0-0.313-0.008-0.555-0.023-0.727s-0.082-0.352-0.199-0.539s-0.293-0.281-0.527-0.281
		C286.415,141.788,286.001,142.034,285.673,142.526z"/>
	<path d="M306.544,151.327c-0.398-0.375-0.598-0.836-0.598-1.383s0.207-1.02,0.621-1.418s0.91-0.598,1.488-0.598
		s1.063,0.191,1.453,0.574s0.586,0.848,0.586,1.395s-0.207,1.016-0.621,1.406s-0.906,0.586-1.477,0.586
		S306.942,151.702,306.544,151.327z M306.31,137.675c-0.227-1.164-0.34-2.082-0.34-2.754s0.211-1.184,0.633-1.535
		s0.906-0.527,1.453-0.527s1.02,0.184,1.418,0.551s0.598,0.859,0.598,1.477s-0.199,2.105-0.598,4.465s-0.613,4.258-0.645,5.695
		c-0.016,0.797-0.281,1.195-0.797,1.195c-0.344,0-0.57-0.117-0.68-0.352s-0.172-0.66-0.188-1.277s-0.105-1.637-0.27-3.059
		S306.536,138.839,306.31,137.675z"/>
</g>
<g>
	<path fill="#F0DDC7" stroke="#000000" stroke-width="2" d="M171.961,147.68c14.666,8.941,31.127,45.066,34.559,48.59
		c2.144,2.199-5.871,2.438-7.315,1.354c-0.55-0.414-29.403-42.677-28.924-42.086c15.354,18.876,25.65,51.245,25.65,55.271
		c0,14.729-1.02,15.908-3.885,25.017c-3.548,11.283-7.563,26.644-9.596,34.397c-1.619,1.452-5.338,1.921-7.385,1.188
		c-4.688-1.68,2.35-27.729-5.056-45.43c-2.792-6.67-7.338-12.918-11.29-12.918c-6.141,0-9.181,8.748-10.098,12.17
		c-0.829,3.096-0.469,43.377-1.372,45.635c-0.741,1.857-6.155,1.721-7.134-0.633c-2.78-6.68-5.945-14.621-9.34-32.807
		c-0.734-3.93-4.477-23.344-3.394-28.944c3.519-18.179,17.045-49.325,19.597-51.773c0.58-0.556-3.447,3.987-10.992,15.319
		c-5.211,7.826-23.983-2.892-24.759-2.843c-1.658,0.104-10.241-1.128-8.813-2.756c5.916-6.744,25.422,5.038,28.994-0.662
		c4.639-7.401,1.96-2.378,6.149-8.878c4.89-7.587,14.423-12.065,21.831-12.065C163.124,144.827,168.765,145.731,171.961,147.68z"/>
	<path d="M171.961,147.68c3.229,1.969,7.878,6.697,8.575,7.775c-3.246,1.641-6.386,2.966-6.013,3.426
		c15.354,18.875,21.407,47.902,21.407,51.929c-2.676,9.566-14.18,19.237-25.921,15.173c-2.792-6.67-7.338-12.918-11.29-12.918
		c-6.141,0-9.181,8.748-10.098,12.17c-0.829,3.096-24.582-11.715-23.499-17.314c3.519-18.18,15.777-45.326,18.327-47.775
		c0.981-0.939-1.257-3.252-5.892-3.252c4.89-7.587,14.423-12.065,21.831-12.065C163.124,144.827,168.765,145.731,171.961,147.68z"/>
	<path fill="#D70051" stroke="#000000" stroke-width="2" d="M188.922,17.93c22.099,10.571,37.365,33.142,37.365,59.28
		c0,12.892-2.722,48.57-9.137,66.673c-4.856,0.238-33.285-2.901-59.427-2.635c-24.011,0.246-45.649,3.95-54.909,3.111
		c-9.858-22.381-7.833-50.823-7.833-67.149c0-36.27,29.393-65.672,65.653-65.672C170.761,11.538,180.354,13.833,188.922,17.93z"/>
	<g>
		<path opacity="0.45" fill="#FFFFFF" d="M198.006,45.321c-2.646,1.52-3.91,2.331-6.323,4.033c-3.312-4.674-5.19-6.941-9.359-11.236
			c2.594-1.96,3.957-2.9,6.795-4.674C193.106,38.02,194.891,40.415,198.006,45.321z"/>
		<path opacity="0.45" fill="#FFFFFF" d="M206.781,38.534c-2.987,1.256-4.43,1.944-7.198,3.417
			c-2.471-3.872-3.844-5.773-6.853-9.453c2.924-1.673,4.444-2.459,7.599-3.911C203.184,32.479,204.476,34.479,206.781,38.534z"/>
	</g>
	<path fill="#F4DAC1" stroke="#000000" stroke-width="2" d="M217.378,91.072c0,34.178-25.771,56.186-57.562,56.186
		c-31.789,0-57.561-22.008-57.561-56.186c0-34.179,26.185-46.481,57.974-46.481C192.02,44.591,217.378,56.893,217.378,91.072z"/>
	<path d="M155.576,132.062c1.116,1.72,2.856,2.827,4.813,2.827c1.958,0,3.697-1.107,4.814-2.827
		c-1.35,0.793-3.014,1.262-4.814,1.262S156.925,132.854,155.576,132.062z"/>
	<path d="M201.891,102.715c0,0-8.202,13.675-15.978,13.675c-7.776,0-11.687-3.621-13.665-9.11
		c-2.245-6.237,5.889-14.898,13.665-14.898C193.688,92.382,201.891,102.715,201.891,102.715z"/>
	<path fill="#FFFFFF" d="M198.537,104.242c0,0-7.287,12.148-14.192,12.148c-6.907,0-10.382-3.217-12.139-8.093
		c-1.995-5.54,5.231-13.235,12.139-13.235C191.25,95.063,198.537,104.242,198.537,104.242z"/>
	<path fill="#40220F" stroke="#000000" stroke-width="3" d="M191.229,104.879c0,3.749-3.253,6.783-7.27,6.783
		c-4.014,0-7.27-3.034-7.27-6.783c0-3.745,3.256-6.783,7.27-6.783C187.977,98.096,191.229,101.134,191.229,104.879z"/>
	<ellipse cx="183.96" cy="104.331" rx="2.819" ry="2.618"/>
	<ellipse opacity="0.9" fill="#FFFFFF" cx="187.482" cy="103.452" rx="2.116" ry="1.973"/>
	<path d="M118.252,102.715c0,0,8.202,13.675,15.977,13.675c7.775,0,11.688-3.621,13.664-9.11
		c2.246-6.237-5.889-14.898-13.664-14.898C126.454,92.382,118.252,102.715,118.252,102.715z"/>
	<path fill="#FFFFFF" d="M121.604,104.242c0,0,7.287,12.148,14.193,12.148c6.905,0,10.382-3.217,12.137-8.093
		c1.997-5.54-5.231-13.235-12.137-13.235C128.892,95.063,121.604,104.242,121.604,104.242z"/>
	<path fill="#40220F" stroke="#000000" stroke-width="3" d="M128.911,104.879c0,3.749,3.254,6.783,7.271,6.783
		c4.015,0,7.271-3.034,7.271-6.783c0-3.745-3.256-6.783-7.271-6.783C132.165,98.096,128.911,101.134,128.911,104.879z"/>
	<ellipse cx="136.182" cy="104.331" rx="2.818" ry="2.618"/>
	<ellipse opacity="0.9" fill="#FFFFFF" cx="138.999" cy="103.452" rx="2.115" ry="1.973"/>
	<ellipse opacity="0.48" fill="#E60012" cx="189.81" cy="123.061" rx="7.085" ry="2.276"/>
	<path d="M193.202,87.23c-2.27-1.875-5.856-3.088-9.896-3.088c-5.288,0-9.801,2.078-11.596,5.005
		c3.249-2.091,7.746-3.385,12.718-3.385C187.616,85.763,190.608,86.298,193.202,87.23z"/>
	<ellipse opacity="0.48" fill="#E60012" cx="130.775" cy="123.061" rx="7.085" ry="2.276"/>
	<path d="M127.383,87.23c2.27-1.875,5.857-3.088,9.896-3.088c5.288,0,9.801,2.078,11.596,5.005
		c-3.248-2.091-7.745-3.385-12.718-3.385C132.969,85.763,129.979,86.298,127.383,87.23z"/>
	<path fill="#D70051" stroke="#000000" stroke-width="2" d="M144.06,60.284c-36.049,29.252-21.852,70.643-6.533,94.605
		c-24.66-6.845-43.714-40.456-38.856-78.112c2.512-19.481,20.491-35.478,45.769-35.478C169.717,41.3,160.908,46.611,144.06,60.284z"
		/>
	<path opacity="0.45" fill="#FFFFFF" d="M144.656,42.235c-19.638-0.676-42.242,15.401-44.696,34.16
		c-4.744,36.259,9.919,68.621,34.003,75.213c-19.467-16.703-44.947-60.886-17.688-89.444c0.9,1.933,3.149,3.303,5.79,3.303
		c3.433,0,6.214-2.316,6.214-5.176c0-2.231-1.695-4.126-4.069-4.854C141.124,44.132,133.913,47.006,144.656,42.235z"/>
	<path fill="#D70051" stroke="#000000" stroke-width="2" d="M176.719,60.284c36.05,29.252,21.853,70.643,6.532,94.605
		c24.661-6.845,43.716-40.456,38.857-78.112C219.598,57.297,201.617,41.3,176.341,41.3C151.062,41.3,159.87,46.611,176.719,60.284z"
		/>
	<path opacity="0.45" fill="#FFFFFF" d="M176.122,42.235c19.638-0.676,42.242,15.401,44.698,34.16
		c4.742,36.259-9.919,68.621-34.003,75.213c19.465-16.703,44.947-60.886,17.688-89.444c-0.902,1.933-3.152,3.303-5.792,3.303
		c-3.431,0-6.216-2.316-6.216-5.176c0-2.231,1.697-4.126,4.073-4.854C179.654,44.132,186.864,47.006,176.122,42.235z"/>
	
		<rect x="123.464" y="195.1" transform="matrix(0.957 0.2902 -0.2902 0.957 67.9328 -30.2536)" fill="#FFFFFF" stroke="#000000" stroke-width="2" width="25.046" height="37.709"/>
	
		<rect x="130.582" y="193.516" transform="matrix(0.9897 0.1429 -0.1429 0.9897 32.0506 -18.2578)" fill="#FFFFFF" stroke="#000000" stroke-width="2" width="25.047" height="40.879"/>
	
		<rect x="143.716" y="195.897" transform="matrix(0.9985 0.0547 -0.0547 0.9985 12.0678 -8.2226)" fill="#FFFFFF" stroke="#000000" stroke-width="2" width="25.047" height="40.879"/>
	
		<rect x="156.008" y="194.972" transform="matrix(0.9957 -0.0922 0.0922 0.9957 -19.1364 16.4499)" fill="#FFFFFF" stroke="#000000" stroke-width="2" width="25.048" height="40.879"/>
	<polygon fill="#FFFFFF" stroke="#000000" stroke-width="2" points="202.384,228.804 189.089,200.752 186.945,191.26 
		162.513,196.775 171.516,236.65 185.861,233.412 187.11,236.046 	"/>
	<polygon fill="#FFFFFF" stroke="#000000" stroke-width="2" points="206.473,221.937 191.994,230.662 176.69,198.067 
		187.989,191.26 	"/>
	<path fill="#FFFFFF" stroke="#000000" stroke-width="2" d="M192.712,191.749c0,4.269-14.879,7.73-33.234,7.73
		c-18.356,0-33.235-3.462-33.235-7.73s14.879-1.984,33.235-1.984C177.833,189.765,192.712,187.48,192.712,191.749z"/>
</g>
</svg>
