<?xml version="1.0" encoding="utf-8"?>
<!-- Generator: Adobe Illustrator 14.0.0, SVG Export Plug-In . SVG Version: 6.00 Build 43363)  -->
<!DOCTYPE svg PUBLIC "-//W3C//DTD SVG 1.1//EN" "http://www.w3.org/Graphics/SVG/1.1/DTD/svg11.dtd">
<svg version="1.1" id="レイヤー_1" xmlns="http://www.w3.org/2000/svg" xmlns:xlink="http://www.w3.org/1999/xlink" x="0px"
	 y="0px" width="320px" height="578px" viewBox="0 0 320 578" enable-background="new 0 0 320 578" xml:space="preserve">
<path fill="#F0DDC7" stroke="#000000" stroke-width="4" d="M185.624,302.669c32.225,19.646,68.393,99.021,75.933,106.763
	c4.71,4.832-12.9,5.355-16.073,2.976c-1.208-0.91-64.605-93.77-63.552-92.472c33.736,41.475,56.359,112.597,56.359,121.443
	c0,32.363-2.24,34.953-8.536,54.967c-7.795,24.791-16.618,58.541-21.084,75.578c-3.558,3.19-11.729,4.221-16.226,2.611
	c-10.3-3.69,5.162-60.926-11.108-99.818c-6.135-14.655-16.123-28.384-24.807-28.384c-13.492,0-20.172,19.222-22.187,26.74
	c-1.822,6.802-1.03,95.308-3.015,100.269c-1.628,4.081-13.524,3.781-15.674-1.391c-6.109-14.677-13.063-32.125-20.521-72.083
	c-1.614-8.634-9.836-51.291-7.457-63.597c7.731-39.942,37.451-108.377,43.058-113.757c1.274-1.221-7.575,8.761-24.152,33.66
	c-11.449,17.195-52.696-6.354-54.4-6.246c-3.644,0.229-22.502-2.479-19.365-6.056c12.999-14.818,55.857,11.07,63.706-1.454
	c10.192-16.263,4.307-5.226,13.512-19.507c10.744-16.67,31.69-26.511,47.967-26.511
	C166.208,296.401,178.602,298.389,185.624,302.669z"/>
<path d="M185.624,302.669c7.096,4.326,17.31,14.716,18.842,17.085c-7.133,3.604-14.031,6.516-13.211,7.526
	c33.734,41.473,47.036,105.252,47.036,114.099c-5.88,21.02-31.156,42.269-56.954,33.338c-6.135-14.655-16.123-28.384-24.807-28.384
	c-13.492,0-20.172,19.222-22.187,26.74c-1.822,6.802-54.012-25.74-51.632-38.044c7.731-39.944,34.666-99.591,40.269-104.973
	c2.157-2.063-2.761-7.145-12.945-7.145c10.744-16.67,31.69-26.511,47.967-26.511C166.208,296.401,178.602,298.389,185.624,302.669z"
	/>
<path fill="#D70051" stroke="#000000" stroke-width="4" d="M222.891,17.582c48.556,23.228,82.1,72.819,82.1,130.251
	c0,28.326-5.98,106.718-20.075,146.495c-10.671,0.523-73.135-6.375-130.573-5.79c-52.756,0.541-100.301,8.679-120.647,6.836
	c-21.661-49.176-17.21-111.669-17.21-147.542c0-79.691,64.582-144.294,144.254-144.294C182.987,3.538,204.064,8.581,222.891,17.582z
	"/>
<g>
	<path opacity="0.45" fill="#FFFFFF" d="M242.849,77.765c-5.813,3.34-8.593,5.123-13.896,8.863
		c-6.253-8.824-13.246-16.747-20.558-24.689c5.698-4.307,8.694-6.372,14.93-10.271C230.304,60.104,236.969,68.507,242.849,77.765z"
		/>
	<path opacity="0.45" fill="#FFFFFF" d="M262.131,62.853c-6.563,2.76-9.73,4.269-15.814,7.508
		c-5.431-8.508-8.443-12.684-15.057-20.77c6.425-3.676,9.769-5.403,16.698-8.594C254.228,49.55,257.064,53.944,262.131,62.853z"/>
</g>
<path fill="#F4DAC1" stroke="#000000" stroke-width="4" d="M285.415,178.29c0,75.096-56.626,123.452-126.475,123.452
	c-69.847,0-126.472-48.356-126.472-123.452c0-75.099,57.533-102.128,127.38-102.128C229.697,76.162,285.415,103.191,285.415,178.29z
	"/>
<path d="M149.624,268.353c2.453,3.78,6.276,6.212,10.576,6.212c4.302,0,8.124-2.432,10.579-6.212
	c-2.966,1.742-6.622,2.772-10.579,2.772C156.243,271.125,152.586,270.095,149.624,268.353z"/>
<path d="M251.386,203.873c0,0-18.021,30.048-35.105,30.048c-17.087,0-25.678-7.956-30.025-20.018
	c-4.933-13.704,12.938-32.735,30.025-32.735C233.364,181.168,251.386,203.873,251.386,203.873z"/>
<path fill="#FFFFFF" d="M244.018,207.228c0,0-16.012,26.693-31.184,26.693c-15.177,0-22.812-7.069-26.671-17.782
	c-4.384-12.172,11.494-29.08,26.671-29.08C228.006,187.06,244.018,207.228,244.018,207.228z"/>
<path fill="#40220F" stroke="#000000" stroke-width="3" d="M227.961,208.627c0,8.237-7.147,14.904-15.973,14.904
	c-8.818,0-15.973-6.667-15.973-14.904c0-8.229,7.154-14.904,15.973-14.904C220.813,193.723,227.961,200.398,227.961,208.627z"/>
<path d="M205.796,207.423c0,3.171,2.772,5.752,6.192,5.752c3.418,0,6.195-2.581,6.195-5.752c0-3.178-2.777-5.752-6.195-5.752
	C208.568,201.671,205.796,204.246,205.796,207.423z"/>
<path opacity="0.9" fill="#FFFFFF" d="M215.078,205.492c0,2.389,2.086,4.334,4.647,4.334c2.568,0,4.65-1.945,4.65-4.334
	c0-2.393-2.082-4.335-4.65-4.335C217.164,201.157,215.078,203.1,215.078,205.492z"/>
<path d="M67.614,203.873c0,0,18.022,30.048,35.104,30.048c17.084,0,25.68-7.956,30.022-20.018
	c4.936-13.704-12.938-32.735-30.022-32.735C85.636,181.168,67.614,203.873,67.614,203.873z"/>
<path fill="#FFFFFF" d="M74.98,207.228c0,0,16.011,26.693,31.186,26.693c15.172,0,22.811-7.069,26.667-17.782
	c4.388-12.172-11.494-29.08-26.667-29.08C90.992,187.06,74.98,207.228,74.98,207.228z"/>
<path fill="#40220F" stroke="#000000" stroke-width="3" d="M91.035,208.627c0,8.237,7.149,14.904,15.975,14.904
	c8.821,0,15.975-6.667,15.975-14.904c0-8.229-7.154-14.904-15.975-14.904C98.184,193.723,91.035,200.398,91.035,208.627z"/>
<path d="M113.202,207.423c0,3.171-2.772,5.752-6.192,5.752c-3.42,0-6.193-2.581-6.193-5.752c0-3.178,2.772-5.752,6.193-5.752
	C110.43,201.671,113.202,204.246,113.202,207.423z"/>
<path opacity="0.9" fill="#FFFFFF" d="M117.848,205.492c0,2.389-2.082,4.334-4.644,4.334c-2.57,0-4.652-1.945-4.652-4.334
	c0-2.393,2.082-4.335,4.652-4.335C115.766,201.157,117.848,203.1,117.848,205.492z"/>
<path opacity="0.48" fill="#E60012" d="M240.408,248.576c0,2.761-6.969,5.001-15.569,5.001c-8.596,0-15.564-2.24-15.564-5.001
	c0-2.764,6.969-5.006,15.564-5.006C233.439,243.57,240.408,245.813,240.408,248.576z"/>
<path d="M232.296,169.85c-4.987-4.12-12.868-6.785-21.743-6.785c-11.619,0-21.534,4.566-25.478,10.997
	c7.139-4.594,17.02-7.437,27.943-7.437C220.021,166.625,226.597,167.802,232.296,169.85z"/>
<ellipse opacity="0.48" fill="#E60012" cx="95.131" cy="248.576" rx="15.567" ry="5.001"/>
<path d="M87.677,169.85c4.987-4.12,12.87-6.785,21.743-6.785c11.619,0,21.534,4.566,25.478,10.997
	c-7.137-4.594-17.018-7.437-27.944-7.437C99.95,166.625,93.38,167.802,87.677,169.85z"/>
<path fill="#D70051" stroke="#000000" stroke-width="4" d="M124.319,110.643c-79.207,64.274-48.012,155.216-14.354,207.868
	c-54.184-15.039-96.048-88.89-85.376-171.627c5.519-42.804,45.023-77.952,100.563-77.952
	C180.693,68.932,161.339,80.601,124.319,110.643z"/>
<path opacity="0.45" fill="#FFFFFF" d="M125.63,70.986c-43.148-1.485-92.814,33.84-98.207,75.057
	c-10.424,79.668,21.794,150.775,74.712,165.259c-42.773-36.701-98.759-133.78-38.863-196.528c1.979,4.246,6.92,7.257,12.722,7.257
	c7.542,0,13.653-5.09,13.653-11.373c0-4.902-3.725-9.065-8.941-10.666C117.869,75.153,102.025,81.469,125.63,70.986z"/>
<path fill="#D70051" stroke="#000000" stroke-width="4" d="M196.078,110.643c79.209,64.274,48.015,155.216,14.353,207.868
	c54.186-15.039,96.053-88.89,85.378-171.627c-5.517-42.804-45.023-77.952-100.561-77.952
	C139.704,68.932,159.058,80.601,196.078,110.643z"/>
<path opacity="0.45" fill="#FFFFFF" d="M194.767,70.986c43.148-1.485,92.815,33.84,98.212,75.057
	c10.419,79.668-21.794,150.775-74.712,165.259c42.769-36.701,98.759-133.78,38.863-196.528c-1.982,4.246-6.927,7.257-12.727,7.257
	c-7.537,0-13.657-5.09-13.657-11.373c0-4.902,3.729-9.065,8.95-10.666C202.528,75.153,218.37,81.469,194.767,70.986z"/>
<rect x="79.066" y="406.861" transform="matrix(0.957 0.2902 -0.2902 0.957 134.6579 -11.6397)" fill="#FFFFFF" stroke="#000000" stroke-width="4" width="55.032" height="82.856"/>
<rect x="94.707" y="403.38" transform="matrix(0.9897 0.1429 -0.1429 0.9897 65.3309 -12.867)" fill="#FFFFFF" stroke="#000000" stroke-width="4" width="55.034" height="89.82"/>
<rect x="123.564" y="408.611" transform="matrix(0.9985 0.0547 -0.0547 0.9985 25.0286 -7.5837)" fill="#FFFFFF" stroke="#000000" stroke-width="4" width="55.035" height="89.819"/>
<rect x="150.573" y="406.58" transform="matrix(0.9957 -0.0922 0.0922 0.9957 -40.8529 18.335)" fill="#FFFFFF" stroke="#000000" stroke-width="4" width="55.036" height="89.819"/>
<polygon fill="#FFFFFF" stroke="#000000" stroke-width="4" points="252.47,480.915 223.258,419.28 218.548,398.424 164.864,410.543 
	184.646,498.156 216.166,491.041 218.91,496.828 "/>
<polygon fill="#FFFFFF" stroke="#000000" stroke-width="4" points="261.453,465.827 229.642,484.999 196.016,413.382 
	220.842,398.424 "/>
<path fill="#FFFFFF" stroke="#000000" stroke-width="4" d="M231.219,399.499c0,9.379-32.692,16.985-73.023,16.985
	c-40.333,0-73.025-7.606-73.025-16.985s32.692-4.36,73.025-4.36C198.526,395.139,231.219,390.12,231.219,399.499z"/>
</svg>
