<?xml version="1.0" encoding="utf-8"?>
<!-- Generator: Adobe Illustrator 14.0.0, SVG Export Plug-In . SVG Version: 6.00 Build 43363)  -->
<!DOCTYPE svg PUBLIC "-//W3C//DTD SVG 1.1//EN" "http://www.w3.org/Graphics/SVG/1.1/DTD/svg11.dtd">
<svg version="1.1" id="contents" xmlns="http://www.w3.org/2000/svg" xmlns:xlink="http://www.w3.org/1999/xlink" x="0px" y="0px"
	 width="800px" height="800px" viewBox="0 0 800 800" enable-background="new 0 0 800 800" xml:space="preserve">
<linearGradient id="SVGID_1_" gradientUnits="userSpaceOnUse" x1="454.4238" y1="-71.0015" x2="734.3281" y2="-71.0015" gradientTransform="matrix(0.7071 0.7071 -0.7071 0.7071 117.3847 -225.2354)">
	<stop  offset="0" style="stop-color:#20B2D7"/>
	<stop  offset="1" style="stop-color:#7F71B2"/>
</linearGradient>
<path fill="url(#SVGID_1_)" d="M709.979,218.999c2.775-0.351,4.871-2.689,4.91-5.487c0.043-2.797-1.979-5.2-4.743-5.632
	c-21.801-3.425-59.29-13.145-67.075-24.611c-8.402-12.383-3.581-20.654-1.301-23.476c2.658-2.75,8.874-5.646,9.533-6.288
	c9.019-5.555,18.388-10.222,27.862-13.888c0.237-0.092,0.466-0.198,0.684-0.319c9.619-3.62,49.563-12.91,94.885,0.092
	c2.735,0.785,5.625-0.598,6.726-3.221c1.105-2.623,0.07-5.656-2.401-7.062c-3.376-1.918-83.281-46.946-133.601-44.232
	c-12,0.647-39.307-3.144-101.259-24.877c-16.127-5.659-44.939-18.853-45.229-18.986c-1.62-0.744-3.496-0.673-5.058,0.189
	c-1.56,0.862-2.619,2.415-2.851,4.183c-0.235,1.78-5.454,42.654,4.26,69.854c-0.673,0.688-1.337,1.377-1.991,2.073
	c-1.744,1.848-3.413,3.743-5.06,5.652c-3.269,3.835-6.362,7.79-9.278,11.87c-2.913,4.079-5.645,8.283-8.179,12.6
	c-2.517,4.33-4.819,8.785-6.881,13.342c-2.084,4.546-3.844,9.245-5.336,14.01c-0.354,1.199-0.756,2.375-1.063,3.588l-0.934,3.625
	c-0.306,1.208-0.523,2.44-0.786,3.658l-0.379,1.826l-0.289,1.849c-0.851,4.901-1.188,9.881-1.235,14.822l0.051,3.705
	c0.054,1.233,0.17,2.465,0.252,3.692l0.139,1.838c0.07,0.612,0.161,1.222,0.24,1.829l0.5,3.647c0.094,0.692,0.693,1.221,1.409,1.207
	c0.771-0.015,1.386-0.649,1.371-1.421l-0.003-0.09l-0.062-3.555c-0.009-0.591-0.028-1.181-0.026-1.772l0.08-1.772
	c0.059-1.179,0.087-2.355,0.172-3.529l0.371-3.509c0.6-4.66,1.459-9.271,2.802-13.749l0.471-1.684l0.554-1.66
	c0.382-1.104,0.713-2.217,1.131-3.306l1.264-3.256c0.413-1.084,0.926-2.136,1.381-3.204c1.906-4.243,4.033-8.378,6.456-12.345
	c2.401-3.973,5.003-7.821,7.792-11.53c2.803-3.698,5.775-7.264,8.895-10.69c2.021-2.222,4.111-4.378,6.249-6.478
	c0.068,8.664,0.75,17.708,3.154,25.858c-15.993,32.69-12.145,71.331-5.974,79.957c0.317,0.442,0.645,0.826,0.977,1.16
	c2.233,2.232,4.708,2.167,5.763,2.005c1.556-0.236,4.378-1.271,5.795-5.551c3.775-11.417,7.718-22.96,11.691-31.671
	c7.658,19.975,16.086,39.776,22.242,53.816c3.716,8.47,7.45,16.765,10.518,23.356c4.689,10.073,5.049,10.41,5.911,11.219
	c1.465,1.37,3.546,1.858,5.467,1.278c1.917-0.581,3.386-2.141,3.843-4.093c1.104-4.695,1.915-9.644,2.774-14.882
	c2.67-16.283,5.43-33.118,17.158-44.845c12.734-12.734,22.531-17.393,29.121-13.845c1.849,0.996,5.257,7.252,6.309,24.392
	c0.735,11.967-0.02,23.358-0.028,23.471c-0.187,2.739,1.638,5.211,4.308,5.845c2.67,0.633,5.407-0.755,6.473-3.284
	c3.524-8.364,14.327-31.485,21.912-37.951C659.006,227.465,689.971,221.527,709.979,218.999z M510.761,77.781
	c-3.578-3.576-3.578-9.377,0-12.954c3.576-3.576,9.376-3.576,12.954,0c3.575,3.577,3.575,9.378,0,12.954
	C520.137,81.358,514.338,81.358,510.761,77.781z M523.083,193.03c-0.709-1.947-2.438-3.342-4.487-3.632
	c-2.053-0.29-4.098,0.574-5.32,2.248c-5.106,6.991-9.765,18.452-14.335,31.489c-0.351-3.514-0.546-7.704-0.43-12.516
	c0.283-11.436,2.43-28.556,11.068-45.172c0.711-1.366,0.829-2.964,0.329-4.42c-1.488-4.317-2.337-9.164-2.8-14.177
	c6.312-4.976,21.566-17.915,37.321-38.049c11.148-14.245,17.464-23.933,20.913-29.826c17.387,5.595,32.495,9.834,45.272,12.702
	c-8.651,5.359-30.195,19.729-46.689,39.269c-18.803,22.277-31.159,58.592-36.034,74.854
	C526.231,201.499,524.619,197.225,523.083,193.03z M612.841,207.554c-0.2,0.192-0.385,0.372-0.552,0.542
	c-15.166-2.257-30.124,12.691-35.518,18.083c-13.552,13.554-17.124,31.793-19.861,48.313c-2.729-5.992-6.061-13.449-9.678-21.775
	c7.704-16.768,24.731-51.376,40.314-66.242c14.825-14.142,32.74-23.996,42.251-28.675c-3.814,7.81-4.372,18.589,3.094,30.421
	C627.434,193.504,617.34,203.258,612.841,207.554z"/>
<circle fill="none" cx="152.804" cy="440.479" r="6.034"/>
<g>
	
		<linearGradient id="SVGID_2_" gradientUnits="userSpaceOnUse" x1="-97.1997" y1="92.6294" x2="31.6621" y2="92.6294" gradientTransform="matrix(1.192488e-008 -1 1 1.192488e-008 -9.3515 475.754)">
		<stop  offset="0" style="stop-color:#20B2D7"/>
		<stop  offset="1" style="stop-color:#7F71B2"/>
	</linearGradient>
	<path fill="url(#SVGID_2_)" d="M93.561,474.248c0.081-1.18,0.508-2.375,1.392-3.797c0.94-1.514,1.833-3.061,2.731-4.598
		c1.514-2.596,3.194-5.232,4.298-8.037c0.567-1.441,3.367-8.803,0.094-8.779c-1.815,0.014-4.059,2.316-5.542,3.178
		c-2.419,1.406-5.02,2.238-7.836,2.188c-3.183-0.057-6.333-0.969-9.39-1.781c-3.684-0.977-7.17-2.256-10.425-4.254
		c-0.481-0.295-7.877-7.82-5.49-2.191c0.78,1.84,4.717,9.484,6.488,12.313c1.965,3.141,3.707,6.406,5.596,9.59
		c0.919,1.551,2.02,3.09,2.523,4.84c0.557,1.939,0.027,3.457-0.682,5.25c-0.531,1.34-0.992,2.715-1.445,4.084
		c-0.297,0.9-3.121,8.811-2.623,9.129c-2.61-1.66-8.67-9.654-9.355-6.902c-2.007,8.059,2.438,22.533,5.579,30.354
		c-0.22,2.963-0.341,5.955-0.341,8.941c0,29.023,7.104,44.377,17.039,48.793c8.355,3.713,16.071-19.77,16.071-48.793
		c0-8.119-0.78-16.256-2.271-24.234c-0.682-3.648-1.32-7.285-2.364-10.852c-0.911-3.111-1.532-6.406-2.811-9.391
		C93.95,477.322,93.455,475.799,93.561,474.248z M87.495,556.306c0,1.954-1.584,3.539-3.539,3.539c-1.955,0-3.54-1.585-3.54-3.539
		s1.584-3.539,3.54-3.539C85.91,552.767,87.495,554.352,87.495,556.306z"/>
	
		<linearGradient id="SVGID_3_" gradientUnits="userSpaceOnUse" x1="-59.6436" y1="117.1831" x2="-34.0643" y2="117.1831" gradientTransform="matrix(1.192488e-008 -1 1 1.192488e-008 -9.3515 475.754)">
		<stop  offset="0" style="stop-color:#20B2D7"/>
		<stop  offset="1" style="stop-color:#7F71B2"/>
	</linearGradient>
	<path fill="url(#SVGID_3_)" d="M104.688,533.947c1.424-1.197,3.027-2.209,3.943-3.943c1.306-2.475,1.77-5.646,2.19-8.418
		c0.489-3.225-0.346-6.457-0.304-9.689c0.006-0.494,0.033-1.686-0.471-2.002c-0.131-0.082-0.299-0.104-0.514-0.037
		c-0.805,0.248-2.636,5.58-3.495,7.027c-0.34,0.572-0.687,1.141-1.035,1.709c0.102,1.732,0.159,3.467,0.159,5.199
		C105.162,527.34,104.994,530.756,104.688,533.947z"/>
</g>
<g>
	
		<linearGradient id="SVGID_4_" gradientUnits="userSpaceOnUse" x1="41.4888" y1="60.6006" x2="126.313" y2="60.6006" gradientTransform="matrix(1.192488e-008 -1 1 1.192488e-008 -9.3515 475.754)">
		<stop  offset="0" style="stop-color:#20B2D7"/>
		<stop  offset="1" style="stop-color:#7F71B2"/>
	</linearGradient>
	<path fill="url(#SVGID_4_)" d="M58.018,369.292c0.053-0.776,0.334-1.563,0.916-2.499c0.619-0.997,1.207-2.015,1.798-3.027
		c0.997-1.708,2.102-3.443,2.829-5.29c0.374-0.949,2.216-5.795,0.062-5.779c-1.195,0.009-2.672,1.525-3.648,2.092
		c-1.592,0.925-3.305,1.474-5.158,1.44c-2.095-0.037-4.169-0.638-6.182-1.172c-2.424-0.645-4.72-1.485-6.862-2.8
		c-0.317-0.195-5.186-5.149-3.614-1.443c0.514,1.211,3.105,6.243,4.271,8.104c1.294,2.068,2.44,4.218,3.684,6.313
		c0.605,1.02,1.33,2.033,1.661,3.186c0.367,1.275,0.018,2.275-0.449,3.455c-0.35,0.883-0.653,1.787-0.951,2.688
		c-0.195,0.593-2.055,5.801-1.726,6.009c-1.718-1.092-5.707-6.354-6.159-4.543c-1.321,5.305,1.605,14.832,3.673,19.98
		c-0.145,1.951-0.224,3.92-0.224,5.885c0,19.107,4.676,29.213,11.216,32.119c5.5,2.445,10.58-13.012,10.58-32.119
		c0-5.344-0.514-10.699-1.496-15.952c-0.449-2.401-0.869-4.794-1.556-7.143c-0.599-2.048-1.008-4.216-1.85-6.181
		C58.274,371.315,57.948,370.313,58.018,369.292z M54.024,423.307c0,1.287-1.042,2.33-2.329,2.33c-1.287,0-2.33-1.043-2.33-2.33
		s1.043-2.33,2.33-2.33C52.982,420.977,54.024,422.02,54.024,423.307z"/>
	
		<linearGradient id="SVGID_5_" gradientUnits="userSpaceOnUse" x1="66.2114" y1="76.7632" x2="83.0484" y2="76.7632" gradientTransform="matrix(1.192488e-008 -1 1 1.192488e-008 -9.3515 475.754)">
		<stop  offset="0" style="stop-color:#20B2D7"/>
		<stop  offset="1" style="stop-color:#7F71B2"/>
	</linearGradient>
	<path fill="url(#SVGID_5_)" d="M65.342,408.588c0.938-0.787,1.993-1.453,2.596-2.596c0.86-1.629,1.166-3.717,1.442-5.539
		c0.322-2.123-0.228-4.252-0.2-6.381c0.004-0.324,0.021-1.109-0.31-1.316c-0.087-0.053-0.197-0.068-0.338-0.025
		c-0.53,0.164-1.735,3.674-2.301,4.627c-0.224,0.377-0.452,0.75-0.681,1.125c0.067,1.141,0.104,2.281,0.104,3.422
		C65.654,404.238,65.543,406.488,65.342,408.588z"/>
</g>
<g>
	
		<linearGradient id="SVGID_6_" gradientUnits="userSpaceOnUse" x1="-19.3511" y1="141.6777" x2="75.918" y2="141.6777" gradientTransform="matrix(1.192488e-008 -1 1 1.192488e-008 -9.3515 475.754)">
		<stop  offset="0" style="stop-color:#20B2D7"/>
		<stop  offset="1" style="stop-color:#7F71B2"/>
	</linearGradient>
	<path fill="url(#SVGID_6_)" d="M139.93,422.131c0.059-0.871,0.375-1.756,1.029-2.807c0.695-1.121,1.355-2.262,2.019-3.4
		c1.119-1.918,2.361-3.867,3.177-5.941c0.419-1.066,2.489-6.508,0.069-6.49c-1.342,0.01-3,1.713-4.098,2.35
		c-1.789,1.039-3.711,1.654-5.793,1.617c-2.353-0.041-4.682-0.717-6.942-1.316c-2.723-0.723-5.301-1.668-7.708-3.145
		c-0.356-0.219-5.824-5.783-4.059-1.621c0.578,1.359,3.488,7.012,4.797,9.104c1.454,2.322,2.741,4.736,4.138,7.09
		c0.679,1.145,1.493,2.283,1.865,3.578c0.412,1.434,0.02,2.557-0.504,3.881c-0.392,0.99-0.733,2.006-1.068,3.02
		c-0.219,0.664-2.308,6.514-1.939,6.748c-1.93-1.227-6.41-7.137-6.917-5.102c-1.484,5.957,1.803,16.658,4.125,22.439
		c-0.162,2.191-0.252,4.402-0.252,6.609c0,21.459,5.252,32.811,12.597,36.074c6.177,2.746,11.882-14.615,11.882-36.074
		c0-6.002-0.577-12.016-1.679-17.916c-0.504-2.697-0.976-5.385-1.748-8.021c-0.673-2.301-1.132-4.736-2.078-6.943
		C140.217,424.404,139.851,423.277,139.93,422.131z M135.444,482.797c0,1.445-1.171,2.617-2.616,2.617
		c-1.445,0-2.617-1.172-2.617-2.617s1.171-2.615,2.617-2.615C134.273,480.182,135.444,481.352,135.444,482.797z"/>
	
		<linearGradient id="SVGID_7_" gradientUnits="userSpaceOnUse" x1="8.4141" y1="159.8311" x2="27.3252" y2="159.8311" gradientTransform="matrix(1.192488e-008 -1 1 1.192488e-008 -9.3515 475.754)">
		<stop  offset="0" style="stop-color:#20B2D7"/>
		<stop  offset="1" style="stop-color:#7F71B2"/>
	</linearGradient>
	<path fill="url(#SVGID_7_)" d="M148.155,466.268c1.053-0.887,2.239-1.635,2.916-2.916c0.966-1.83,1.309-4.176,1.62-6.223
		c0.361-2.385-0.256-4.775-0.225-7.164c0.005-0.365,0.025-1.246-0.348-1.479c-0.097-0.061-0.221-0.078-0.38-0.029
		c-0.595,0.184-1.949,4.127-2.584,5.195c-0.251,0.424-0.508,0.844-0.765,1.264c0.076,1.281,0.118,2.563,0.118,3.846
		C148.506,461.381,148.382,463.908,148.155,466.268z"/>
</g>
<circle fill="none" cx="254.348" cy="616.492" r="6.034"/>
<g>
	
		<linearGradient id="SVGID_8_" gradientUnits="userSpaceOnUse" x1="78.3691" y1="-210.7793" x2="207.2295" y2="-210.7793" gradientTransform="matrix(-0.637 -0.7708 0.7708 -0.637 497.5433 689.0345)">
		<stop  offset="0" style="stop-color:#20B2D7"/>
		<stop  offset="1" style="stop-color:#7F71B2"/>
	</linearGradient>
	<path fill="url(#SVGID_8_)" d="M230.192,680.262c-0.689-0.961-1.121-2.154-1.346-3.813c-0.239-1.766-0.536-3.528-0.824-5.284
		c-0.486-2.965-0.871-6.067-1.808-8.934c-0.481-1.473-3.012-8.93-5.52-6.826c-1.39,1.166-1.653,4.371-2.248,5.979
		c-0.97,2.626-2.444,4.923-4.646,6.679c-2.489,1.984-5.499,3.287-8.373,4.609c-3.462,1.593-6.964,2.828-10.746,3.361
		c-0.56,0.08-11.056-1.011-5.628,1.809c1.773,0.92,9.677,4.305,12.845,5.357c3.516,1.17,6.938,2.578,10.423,3.828
		c1.696,0.608,3.524,1.094,5.028,2.123c1.664,1.14,2.223,2.647,2.818,4.48c0.445,1.371,0.964,2.725,1.488,4.068
		c0.344,0.883,3.208,8.781,3.793,8.707c-3.069,0.384-12.833-1.918-11.607,0.641c3.586,7.489,16.233,15.813,23.636,19.843
		c1.719,2.424,3.531,4.807,5.434,7.109c18.489,22.373,33.746,29.682,44.217,26.756c8.806-2.459-0.206-25.476-18.695-47.849
		c-5.172-6.259-10.956-12.033-17.188-17.233c-2.85-2.378-5.659-4.775-8.735-6.858c-2.683-1.818-5.262-3.963-8.147-5.447
		C232.451,682.383,231.098,681.524,230.192,680.262z M277.789,747.379c1.246,1.507,1.034,3.737-0.473,4.982
		c-1.507,1.245-3.738,1.032-4.983-0.474c-1.246-1.507-1.034-3.737,0.474-4.982C274.313,745.66,276.544,745.872,277.789,747.379z"/>
	
		<linearGradient id="SVGID_9_" gradientUnits="userSpaceOnUse" x1="115.9258" y1="-186.2246" x2="141.504" y2="-186.2246" gradientTransform="matrix(-0.637 -0.7708 0.7708 -0.637 497.5433 689.0345)">
		<stop  offset="0" style="stop-color:#20B2D7"/>
		<stop  offset="1" style="stop-color:#7F71B2"/>
	</linearGradient>
	<path fill="url(#SVGID_9_)" d="M276.799,719.19c0.334-1.83,0.927-3.631,0.527-5.551c-0.569-2.74-2.232-5.479-3.673-7.884
		c-1.677-2.797-4.38-4.758-6.407-7.275c-0.309-0.385-1.048-1.321-1.638-1.243c-0.153,0.021-0.295,0.11-0.419,0.298
		c-0.462,0.703,1.523,5.98,1.783,7.645c0.103,0.658,0.197,1.316,0.292,1.977c1.181,1.27,2.33,2.57,3.434,3.906
		C272.956,713.796,275.002,716.536,276.799,719.19z"/>
</g>
<g>
	
		<linearGradient id="SVGID_10_" gradientUnits="userSpaceOnUse" x1="217.0571" y1="-242.8086" x2="301.8809" y2="-242.8086" gradientTransform="matrix(-0.637 -0.7708 0.7708 -0.637 497.5433 689.0345)">
		<stop  offset="0" style="stop-color:#20B2D7"/>
		<stop  offset="1" style="stop-color:#7F71B2"/>
	</linearGradient>
	<path fill="url(#SVGID_10_)" d="M135.934,621.999c-0.454-0.632-0.738-1.419-0.886-2.511c-0.158-1.162-0.353-2.321-0.542-3.479
		c-0.32-1.951-0.573-3.992-1.189-5.88c-0.317-0.97-1.983-5.878-3.635-4.494c-0.915,0.769-1.087,2.878-1.479,3.937
		c-0.638,1.727-1.608,3.242-3.058,4.396c-1.639,1.306-3.62,2.164-5.511,3.034c-2.279,1.048-4.584,1.861-7.074,2.214
		c-0.369,0.051-7.277-0.666-3.705,1.189c1.167,0.605,6.371,2.834,8.455,3.527c2.315,0.77,4.568,1.695,6.862,2.519
		c1.116,0.4,2.32,0.721,3.31,1.397c1.095,0.75,1.463,1.743,1.854,2.949c0.292,0.904,0.635,1.793,0.979,2.679
		c0.227,0.582,2.112,5.78,2.497,5.731c-2.02,0.253-8.446-1.262-7.641,0.421c2.361,4.931,10.686,10.411,15.559,13.062
		c1.132,1.597,2.325,3.166,3.577,4.68c12.171,14.729,22.214,19.539,29.107,17.613c5.795-1.618-0.135-16.77-12.306-31.498
		c-3.404-4.119-7.212-7.92-11.315-11.344c-1.875-1.564-3.724-3.141-5.75-4.514c-1.767-1.197-3.462-2.607-5.364-3.586
		C137.42,623.396,136.531,622.83,135.934,621.999z M167.265,666.181c0.819,0.991,0.68,2.459-0.312,3.278
		c-0.992,0.82-2.46,0.682-3.28-0.311s-0.68-2.461,0.312-3.28C164.977,665.049,166.445,665.188,167.265,666.181z"/>
	
		<linearGradient id="SVGID_11_" gradientUnits="userSpaceOnUse" x1="241.7788" y1="-226.6455" x2="258.6163" y2="-226.6455" gradientTransform="matrix(-0.637 -0.7708 0.7708 -0.637 497.5433 689.0345)">
		<stop  offset="0" style="stop-color:#20B2D7"/>
		<stop  offset="1" style="stop-color:#7F71B2"/>
	</linearGradient>
	<path fill="url(#SVGID_11_)" d="M166.612,647.625c0.221-1.205,0.61-2.391,0.348-3.654c-0.375-1.804-1.469-3.608-2.418-5.189
		c-1.104-1.841-2.885-3.133-4.219-4.791c-0.204-0.252-0.69-0.867-1.077-0.816c-0.101,0.014-0.195,0.072-0.277,0.195
		c-0.304,0.465,1.003,3.938,1.174,5.031c0.068,0.435,0.13,0.867,0.192,1.303c0.778,0.835,1.534,1.691,2.261,2.571
		C164.083,644.073,165.43,645.877,166.612,647.625z"/>
</g>
<g>
	
		<linearGradient id="SVGID_12_" gradientUnits="userSpaceOnUse" x1="156.2168" y1="-161.7305" x2="251.4854" y2="-161.7305" gradientTransform="matrix(-0.637 -0.7708 0.7708 -0.637 497.5433 689.0345)">
		<stop  offset="0" style="stop-color:#20B2D7"/>
		<stop  offset="1" style="stop-color:#7F71B2"/>
	</linearGradient>
	<path fill="url(#SVGID_12_)" d="M232.735,610.55c-0.511-0.71-0.829-1.593-0.996-2.818c-0.178-1.308-0.396-2.608-0.609-3.908
		c-0.358-2.19-0.644-4.484-1.336-6.604c-0.355-1.089-2.227-6.603-4.081-5.048c-1.027,0.863-1.222,3.232-1.661,4.422
		c-0.716,1.941-1.807,3.64-3.436,4.938c-1.839,1.467-4.065,2.43-6.189,3.407c-2.561,1.177-5.149,2.092-7.944,2.485
		c-0.415,0.059-8.174-0.747-4.162,1.336c1.312,0.682,7.155,3.184,9.497,3.963c2.599,0.863,5.129,1.904,7.706,2.828
		c1.252,0.45,2.605,0.81,3.717,1.571c1.23,0.841,1.644,1.958,2.083,3.313c0.328,1.013,0.712,2.013,1.1,3.007
		c0.254,0.652,2.371,6.492,2.805,6.438c-2.269,0.284-9.487-1.418-8.582,0.474c2.651,5.538,12,11.692,17.473,14.669
		c1.271,1.793,2.612,3.556,4.018,5.257c13.669,16.541,24.95,21.944,32.689,19.782c6.51-1.818-0.15-18.836-13.819-35.377
		c-3.824-4.627-8.101-8.895-12.709-12.74c-2.106-1.758-4.182-3.529-6.458-5.07c-1.983-1.344-3.89-2.93-6.024-4.027
		C234.405,612.119,233.405,611.484,232.735,610.55z M267.923,660.17c0.92,1.115,0.764,2.764-0.35,3.684
		c-1.114,0.922-2.764,0.765-3.684-0.35c-0.92-1.113-0.763-2.763,0.351-3.684C265.354,658.9,267.004,659.057,267.923,660.17z"/>
	
		<linearGradient id="SVGID_13_" gradientUnits="userSpaceOnUse" x1="183.9814" y1="-143.5771" x2="202.8936" y2="-143.5771" gradientTransform="matrix(-0.637 -0.7708 0.7708 -0.637 497.5433 689.0345)">
		<stop  offset="0" style="stop-color:#20B2D7"/>
		<stop  offset="1" style="stop-color:#7F71B2"/>
	</linearGradient>
	<path fill="url(#SVGID_13_)" d="M267.192,639.332c0.248-1.354,0.684-2.686,0.389-4.105c-0.421-2.025-1.65-4.052-2.715-5.828
		c-1.24-2.068-3.239-3.519-4.738-5.379c-0.228-0.283-0.774-0.977-1.209-0.918c-0.113,0.014-0.22,0.08-0.312,0.219
		c-0.342,0.521,1.128,4.423,1.318,5.651c0.076,0.486,0.146,0.974,0.216,1.461c0.874,0.94,1.722,1.901,2.54,2.89
		C264.349,635.342,265.864,637.369,267.192,639.332z"/>
</g>
<g>
	
		<linearGradient id="SVGID_14_" gradientUnits="userSpaceOnUse" x1="266.3442" y1="-182.002" x2="326.4512" y2="-182.002" gradientTransform="matrix(-0.637 -0.7708 0.7708 -0.637 497.5433 689.0345)">
		<stop  offset="0" style="stop-color:#20B2D7"/>
		<stop  offset="1" style="stop-color:#7F71B2"/>
	</linearGradient>
	<path fill="url(#SVGID_14_)" d="M161.949,561.121c-0.322-0.447-0.523-1.004-0.628-1.777c-0.112-0.826-0.25-1.646-0.384-2.467
		c-0.227-1.382-0.406-2.829-0.843-4.166c-0.224-0.688-1.405-4.165-2.575-3.185c-0.648,0.544-0.771,2.039-1.048,2.79
		c-0.452,1.225-1.14,2.297-2.167,3.115c-1.161,0.926-2.565,1.533-3.905,2.149c-1.615,0.742-3.248,1.319-5.012,1.568
		c-0.261,0.036-5.157-0.472-2.625,0.843c0.827,0.43,4.514,2.008,5.992,2.5c1.64,0.545,3.236,1.201,4.862,1.785
		c0.791,0.283,1.644,0.51,2.345,0.99c0.776,0.531,1.037,1.236,1.314,2.09c0.207,0.639,0.449,1.271,0.694,1.896
		c0.161,0.412,1.496,4.097,1.77,4.063c-1.431,0.18-5.985-0.895-5.415,0.299c1.673,3.494,7.572,7.377,11.024,9.256
		c0.802,1.13,1.647,2.242,2.535,3.316c8.625,10.436,15.741,13.844,20.625,12.48c4.107-1.147-0.095-11.885-8.719-22.32
		c-2.413-2.919-5.111-5.611-8.019-8.038c-1.329-1.109-2.638-2.227-4.074-3.198c-1.251-0.849-2.454-1.85-3.8-2.542
		C163.002,562.111,162.371,561.711,161.949,561.121z M184.15,592.428c0.581,0.703,0.482,1.744-0.221,2.324
		c-0.703,0.581-1.744,0.482-2.325-0.221c-0.58-0.702-0.481-1.743,0.222-2.324C182.529,591.627,183.569,591.725,184.15,592.428z"/>
	
		<linearGradient id="SVGID_15_" gradientUnits="userSpaceOnUse" x1="283.8633" y1="-170.5483" x2="295.7942" y2="-170.5483" gradientTransform="matrix(-0.637 -0.7708 0.7708 -0.637 497.5433 689.0345)">
		<stop  offset="0" style="stop-color:#20B2D7"/>
		<stop  offset="1" style="stop-color:#7F71B2"/>
	</linearGradient>
	<path fill="url(#SVGID_15_)" d="M183.688,579.279c0.156-0.854,0.432-1.693,0.246-2.589c-0.266-1.278-1.042-2.557-1.713-3.677
		c-0.782-1.305-2.044-2.221-2.989-3.395c-0.144-0.179-0.489-0.616-0.763-0.579c-0.071,0.009-0.14,0.051-0.197,0.139
		c-0.215,0.329,0.712,2.79,0.832,3.565c0.048,0.307,0.092,0.613,0.136,0.922c0.551,0.593,1.087,1.199,1.603,1.822
		C181.895,576.762,182.85,578.042,183.688,579.279z"/>
</g>
<circle fill="none" cx="369.004" cy="635.173" r="4.476"/>
<g>
	
		<linearGradient id="SVGID_16_" gradientUnits="userSpaceOnUse" x1="328.8472" y1="-320.4756" x2="424.4268" y2="-320.4756" gradientTransform="matrix(-1 -0.0053 0.0053 -1 797.5391 368.5491)">
		<stop  offset="0" style="stop-color:#20B2D7"/>
		<stop  offset="1" style="stop-color:#7F71B2"/>
	</linearGradient>
	<path fill="url(#SVGID_16_)" d="M393.816,679.248c-0.874-0.064-1.759-0.386-2.809-1.047c-1.12-0.703-2.265-1.373-3.4-2.045
		c-1.92-1.133-3.868-2.389-5.944-3.219c-1.068-0.426-6.517-2.532-6.512-0.104c0.004,1.346,1.702,3.02,2.336,4.123
		c1.032,1.801,1.639,3.731,1.591,5.82c-0.054,2.36-0.744,4.693-1.358,6.958c-0.739,2.729-1.702,5.31-3.195,7.717
		c-0.221,0.355-5.833,5.812-1.647,4.062c1.366-0.571,7.053-3.46,9.158-4.763c2.338-1.446,4.766-2.724,7.135-4.112
		c1.154-0.676,2.3-1.486,3.601-1.854c1.439-0.404,2.564-0.006,3.89,0.527c0.993,0.398,2.011,0.746,3.023,1.088
		c0.667,0.223,6.524,2.35,6.762,1.98c-1.244,1.93-7.197,6.395-5.158,6.912c5.969,1.521,16.722-1.72,22.536-4.018
		c2.197,0.174,4.416,0.275,6.631,0.287c21.527,0.115,32.943-5.094,36.258-12.444c2.787-6.183-14.6-11.999-36.129-12.112
		c-6.021-0.033-12.059,0.514-17.982,1.588c-2.708,0.49-5.409,0.95-8.058,1.711c-2.311,0.662-4.758,1.109-6.976,2.047
		C396.098,678.973,394.966,679.334,393.816,679.248z M454.655,684.072c1.451,0.008,2.619,1.189,2.611,2.639
		c-0.006,1.451-1.189,2.62-2.639,2.611c-1.451-0.008-2.619-1.189-2.611-2.639S453.206,684.064,454.655,684.072z"/>
	
		<linearGradient id="SVGID_17_" gradientUnits="userSpaceOnUse" x1="356.7046" y1="-302.2627" x2="375.6763" y2="-302.2627" gradientTransform="matrix(-1 -0.0053 0.0053 -1 797.5391 368.5491)">
		<stop  offset="0" style="stop-color:#20B2D7"/>
		<stop  offset="1" style="stop-color:#7F71B2"/>
	</linearGradient>
	<path fill="url(#SVGID_17_)" d="M438.14,671.23c-0.883-1.06-1.625-2.253-2.908-2.938c-1.83-0.979-4.182-1.336-6.236-1.659
		c-2.389-0.374-4.789,0.231-7.188,0.188c-0.367-0.007-1.25-0.031-1.486,0.343c-0.061,0.095-0.078,0.22-0.029,0.379
		c0.18,0.599,4.129,1.978,5.199,2.621c0.424,0.254,0.842,0.515,1.264,0.774c1.283-0.07,2.57-0.104,3.855-0.098
		C433.241,670.854,435.774,670.992,438.14,671.23z"/>
</g>
<g>
	
		<linearGradient id="SVGID_18_" gradientUnits="userSpaceOnUse" x1="431.7158" y1="-344.2324" x2="494.6328" y2="-344.2324" gradientTransform="matrix(-1 -0.0053 0.0053 -1 797.5391 368.5491)">
		<stop  offset="0" style="stop-color:#20B2D7"/>
		<stop  offset="1" style="stop-color:#7F71B2"/>
	</linearGradient>
	<path fill="url(#SVGID_18_)" d="M315.828,705.197c-0.575-0.043-1.158-0.256-1.85-0.689c-0.737-0.464-1.489-0.904-2.238-1.347
		c-1.263-0.745-2.546-1.572-3.912-2.119c-0.704-0.281-4.29-1.667-4.287-0.068c0.003,0.886,1.121,1.988,1.538,2.715
		c0.68,1.185,1.08,2.456,1.048,3.831c-0.036,1.554-0.49,3.09-0.894,4.58c-0.488,1.795-1.121,3.495-2.104,5.079
		c-0.146,0.234-3.84,3.826-1.085,2.675c0.9-0.376,4.644-2.278,6.028-3.136c1.539-0.951,3.139-1.793,4.697-2.708
		c0.759-0.443,1.513-0.979,2.37-1.219c0.946-0.268,1.687-0.004,2.56,0.346c0.653,0.264,1.323,0.492,1.991,0.718
		c0.438,0.146,4.295,1.547,4.449,1.303c-0.817,1.271-4.734,4.208-3.394,4.551c3.929,1,11.008-1.133,14.833-2.646
		c1.447,0.114,2.908,0.183,4.365,0.19c14.172,0.074,21.686-3.354,23.868-8.193c1.834-4.068-9.609-7.897-23.781-7.974
		c-3.964-0.021-7.938,0.34-11.838,1.047c-1.783,0.322-3.56,0.625-5.304,1.125c-1.521,0.438-3.132,0.732-4.592,1.348
		C317.329,705.016,316.585,705.252,315.828,705.197z M355.876,708.372c0.954,0.005,1.723,0.782,1.718,1.737
		c-0.005,0.954-0.782,1.723-1.736,1.719c-0.954-0.006-1.725-0.783-1.72-1.738C354.144,709.137,354.922,708.367,355.876,708.372z"/>
	
		<linearGradient id="SVGID_19_" gradientUnits="userSpaceOnUse" x1="450.0537" y1="-332.2441" x2="462.5421" y2="-332.2441" gradientTransform="matrix(-1 -0.0053 0.0053 -1 797.5391 368.5491)">
		<stop  offset="0" style="stop-color:#20B2D7"/>
		<stop  offset="1" style="stop-color:#7F71B2"/>
	</linearGradient>
	<path fill="url(#SVGID_19_)" d="M345.003,699.92c-0.58-0.699-1.07-1.484-1.914-1.936c-1.205-0.645-2.753-0.881-4.103-1.092
		c-1.574-0.248-3.156,0.152-4.734,0.123c-0.24-0.004-0.822-0.02-0.978,0.225c-0.039,0.064-0.051,0.146-0.021,0.25
		c0.12,0.395,2.719,1.303,3.423,1.725c0.278,0.168,0.555,0.338,0.832,0.51c0.846-0.045,1.692-0.067,2.539-0.063
		C341.779,699.67,343.447,699.762,345.003,699.92z"/>
</g>
<g>
	
		<linearGradient id="SVGID_20_" gradientUnits="userSpaceOnUse" x1="386.5908" y1="-284.0947" x2="457.2529" y2="-284.0947" gradientTransform="matrix(-1 -0.0053 0.0053 -1 797.5391 368.5491)">
		<stop  offset="0" style="stop-color:#20B2D7"/>
		<stop  offset="1" style="stop-color:#7F71B2"/>
	</linearGradient>
	<path fill="url(#SVGID_20_)" d="M355.345,644.65c-0.646-0.047-1.302-0.285-2.079-0.773c-0.828-0.521-1.673-1.016-2.514-1.513
		c-1.418-0.837-2.858-1.765-4.395-2.378c-0.789-0.316-4.817-1.873-4.814-0.078c0.002,0.994,1.26,2.232,1.728,3.047
		c0.764,1.332,1.212,2.76,1.176,4.305c-0.04,1.744-0.55,3.469-1.004,5.143c-0.547,2.018-1.257,3.927-2.362,5.705
		c-0.163,0.264-4.313,4.297-1.218,3.004c1.011-0.422,5.214-2.559,6.771-3.521c1.728-1.069,3.523-2.014,5.275-3.041
		c0.852-0.499,1.7-1.098,2.662-1.369c1.063-0.3,1.896-0.004,2.876,0.39c0.732,0.294,1.485,0.552,2.234,0.805
		c0.492,0.165,4.822,1.737,4.999,1.464c-0.917,1.427-5.319,4.726-3.813,5.11c4.412,1.124,12.363-1.271,16.659-2.971
		c1.625,0.13,3.268,0.204,4.902,0.213c15.917,0.085,24.358-3.766,26.805-9.2c2.062-4.57-10.791-8.871-26.708-8.957
		c-4.451-0.023-8.915,0.381-13.296,1.176c-2.002,0.363-3.998,0.701-5.958,1.265c-1.706,0.49-3.516,0.821-5.156,1.515
		C357.032,644.446,356.194,644.713,355.345,644.65z M400.323,648.217c1.072,0.006,1.937,0.879,1.931,1.951s-0.881,1.936-1.951,1.93
		c-1.071-0.006-1.938-0.879-1.93-1.951C398.378,649.074,399.252,648.211,400.323,648.217z"/>
	
		<linearGradient id="SVGID_21_" gradientUnits="userSpaceOnUse" x1="407.1846" y1="-270.6299" x2="421.2114" y2="-270.6299" gradientTransform="matrix(-1 -0.0053 0.0053 -1 797.5391 368.5491)">
		<stop  offset="0" style="stop-color:#20B2D7"/>
		<stop  offset="1" style="stop-color:#7F71B2"/>
	</linearGradient>
	<path fill="url(#SVGID_21_)" d="M388.113,638.723c-0.65-0.783-1.203-1.666-2.15-2.173c-1.354-0.724-3.092-0.988-4.609-1.226
		c-1.768-0.277-3.543,0.171-5.314,0.139c-0.27-0.006-0.925-0.023-1.099,0.252c-0.045,0.07-0.059,0.163-0.021,0.281
		c0.133,0.442,3.052,1.461,3.842,1.938c0.313,0.188,0.623,0.379,0.935,0.572c0.951-0.051,1.9-0.078,2.852-0.072
		C384.49,638.443,386.365,638.547,388.113,638.723z"/>
</g>
<g>
	<g>
		
			<linearGradient id="SVGID_22_" gradientUnits="userSpaceOnUse" x1="604.8555" y1="408.3633" x2="621.5625" y2="408.3633" gradientTransform="matrix(0.4181 0.9084 -0.9084 0.4181 821.3895 -432.9847)">
			<stop  offset="0" style="stop-color:#20B2D7"/>
			<stop  offset="1" style="stop-color:#7F71B2"/>
		</linearGradient>
		<path fill="url(#SVGID_22_)" d="M713.574,298.62c-0.936-2.902-3.819-6.708-4.809-7.962c2.283-1.39,3.431-2.942,3.526-3.074
			c0.408-0.568,0.279-1.359-0.29-1.767c-0.565-0.409-1.357-0.28-1.766,0.289c-0.04,0.054-4.044,5.466-12.649,3.971
			c-0.688-0.121-1.344,0.341-1.462,1.03c-0.047,0.263-0.008,0.521,0.096,0.745c0.168,0.366,0.508,0.646,0.934,0.719
			c0.44,0.077,0.868,0.136,1.287,0.183c-0.134,1.468-0.214,4.091,0.631,5.926c0.271,0.59,0.64,1.1,1.132,1.461
			c0.708,0.521,1.943,0.954,3.81,0.062c0.866-0.416,2.98,0.187,4.525,0.627c2.08,0.593,3.721,1.06,4.695,0.051
			C713.601,300.505,713.956,299.804,713.574,298.62z M709.234,298.396c-2.147-0.612-4.582-1.305-6.315-0.476
			c-0.329,0.158-0.929,0.391-1.215,0.182c-0.731-0.537-0.947-3.005-0.73-5.232c2.134-0.048,3.954-0.473,5.469-1.065
			c0.011,0.015,0.021,0.031,0.034,0.046c0.035,0.042,3.3,4.038,4.488,7.002C710.434,298.738,709.753,298.543,709.234,298.396z"/>
		
			<linearGradient id="SVGID_23_" gradientUnits="userSpaceOnUse" x1="593.5732" y1="404.6104" x2="597.5752" y2="404.6104" gradientTransform="matrix(0.4181 0.9084 -0.9084 0.4181 821.3895 -432.9847)">
			<stop  offset="0" style="stop-color:#20B2D7"/>
			<stop  offset="1" style="stop-color:#7F71B2"/>
		</linearGradient>
		<circle fill="url(#SVGID_23_)" cx="702.833" cy="277.2" r="2.001"/>
	</g>
	
		<linearGradient id="SVGID_24_" gradientUnits="userSpaceOnUse" x1="584.8105" y1="424.6221" x2="680.0146" y2="424.6221" gradientTransform="matrix(0.4181 0.9084 -0.9084 0.4181 821.3895 -432.9847)">
		<stop  offset="0" style="stop-color:#20B2D7"/>
		<stop  offset="1" style="stop-color:#7F71B2"/>
	</linearGradient>
	<path fill="url(#SVGID_24_)" d="M740.736,351.91c1.722-3.133-0.186-9.452-4.53-15.023c-2.53-3.243-5.603-5.005-8.07-6.419
		c-2.274-1.304-4.07-2.332-4.724-3.993c-0.222-0.563-0.248-1.249-0.166-2.07c1.146,0.371,2.663,0.834,4.255,1.245
		c6.469,1.667,8.341,0.954,9.322,0.038c0.786-0.736,1.049-1.816,0.72-2.963c-3.951-13.775-13.266-22.562-15.38-24.42
		c-2.127-6.856-5.04-13.603-8.231-19.05c-2.385-4.071-6.061-9.359-10.032-11.436c-1.75-0.915-3.407-1.13-4.925-0.642
		c-3.204,1.034-6.103,4.956-7.562,10.234c-1.031,3.734-1.752,9.569,0.015,17.234c-0.621,0.47-2.853,2.296-4.63,5.461
		c-1.875,3.34-3.606,8.879-1.214,16.304c0.047,0.145,0.102,0.284,0.161,0.416c0.421,0.913,1.171,1.517,2.106,1.679
		c1.316,0.23,3.252-0.164,7.616-4.816c0.845-0.899,1.633-1.802,2.285-2.577c1.722,3.314,3.459,6.158,5.013,8.698
		c1.964,3.212,3.659,5.985,4.47,8.417c0.63,1.888-4.639,5.226-8.872,7.907c-6.46,4.092-13.781,8.732-15.576,15.175
		c-0.733,2.639-1.459,6.128-0.34,8.557c0.289,0.633,0.704,1.189,1.273,1.644c3.246,2.59,8.901-0.12,15.417-3.646
		c2.666-1.444,4.29-0.876,6.343-0.154c1.896,0.667,4.046,1.423,6.885,0.507c4.859-1.566,6.563-3.957,7.809-5.702
		c0.848-1.187,1.359-1.904,2.666-2.263l0,0c3.759-1.034,6.995,0.507,9.849,1.868c1.674,0.797,3.121,1.487,4.566,1.626
		C738.75,353.886,740.019,353.219,740.736,351.91z M689.841,301.988c0.865-1.577,1.876-2.754,2.639-3.514
		c0.021,0.066,0.041,0.131,0.062,0.196c1.064,3.301,2.252,6.25,3.483,8.918c-0.649,0.806-1.709,2.08-2.891,3.36
		c-2.354,2.549-3.679,3.486-4.313,3.83C687.426,310.07,687.77,305.771,689.841,301.988z M715.32,323.932
		c-2.368,0.888-3.775,1.221-5.553,1.018c-0.002-0.004-0.004-0.009-0.006-0.013c-0.996-2.167-2.393-4.45-3.945-6.99
		c-3.116-5.093-6.991-11.433-9.873-20.37c-2.847-8.828-2.161-15.321-1.084-19.213c1.272-4.604,3.594-7.263,5.213-7.785
		c0.571-0.184,1.302-0.046,2.171,0.407c2.477,1.295,5.612,4.967,8.604,10.075c3.13,5.343,5.987,12.01,8.048,18.775
		c0,0.001,0.001,0.002,0.002,0.005c0.001,0.002,0.001,0.004,0.002,0.007c3.288,10.802,2.127,16.813,1.279,21.204
		c-0.203,1.054-0.387,2.016-0.483,2.927C718.068,323.657,716.374,323.538,715.32,323.932z M723.858,320.843
		c0.665-3.529,1.388-8.395,0.046-15.625c3.297,3.836,7.623,9.973,10.016,17.858c-0.78,0.037-2.487-0.079-5.962-1.004
		C726.385,321.653,724.896,321.185,723.858,320.843z M718.415,345.662c-0.211,0.41-0.568,0.713-1.006,0.854
		c-0.83,0.268-1.73-0.126-2.094-0.917c-0.028-0.063-0.055-0.128-0.076-0.194c-0.142-0.44-0.104-0.906,0.107-1.317
		c0.209-0.409,0.565-0.712,1.004-0.853c0.831-0.269,1.731,0.126,2.095,0.917c0.029,0.063,0.054,0.128,0.076,0.194
		C718.66,344.785,718.625,345.251,718.415,345.662z M724.278,338.778c0.829-0.267,1.729,0.127,2.093,0.918
		c0.029,0.063,0.055,0.128,0.076,0.193c0.292,0.906-0.207,1.879-1.111,2.17c-0.83,0.269-1.731-0.126-2.095-0.917
		c-0.028-0.064-0.054-0.128-0.075-0.196C722.875,340.042,723.372,339.069,724.278,338.778z M717.809,330.103
		c1.22-0.393,2.526,0.276,2.92,1.496c0.393,1.218-0.275,2.525-1.496,2.919c-1.22,0.394-2.526-0.276-2.919-1.496
		C715.92,331.803,716.589,330.495,717.809,330.103z M708.309,336.851c1.219-0.394,2.526,0.275,2.92,1.496
		c0.393,1.219-0.276,2.527-1.496,2.919c-1.22,0.394-2.527-0.277-2.921-1.496C706.419,338.551,707.09,337.244,708.309,336.851z
		 M697.65,347.955c-1.22,0.394-2.527-0.276-2.92-1.496c-0.392-1.218,0.277-2.527,1.496-2.918c1.221-0.394,2.527,0.275,2.921,1.495
		C699.539,346.255,698.87,347.562,697.65,347.955z M691.803,356.403c-0.83,0.268-1.73-0.128-2.094-0.918
		c-0.03-0.061-0.057-0.126-0.076-0.192c-0.142-0.439-0.104-0.907,0.106-1.316c0.209-0.409,0.567-0.713,1.006-0.854
		c0.828-0.269,1.729,0.127,2.093,0.917c0.029,0.063,0.055,0.129,0.076,0.195c0.142,0.438,0.104,0.904-0.107,1.314
		C692.599,355.958,692.239,356.262,691.803,356.403z M707.609,351.026c-0.83,0.269-1.73-0.125-2.096-0.917
		c-0.028-0.062-0.055-0.127-0.074-0.194c-0.292-0.904,0.206-1.877,1.111-2.169c0.83-0.269,1.73,0.126,2.094,0.917
		c0.03,0.063,0.055,0.127,0.076,0.194C709.012,349.761,708.514,350.736,707.609,351.026z M734.267,346.915
		c-0.829,0.267-1.73-0.127-2.094-0.918c-0.029-0.063-0.056-0.127-0.076-0.193c-0.292-0.906,0.207-1.878,1.111-2.171
		c0.83-0.266,1.73,0.127,2.094,0.917c0.03,0.063,0.056,0.129,0.076,0.195C735.67,345.65,735.171,346.624,734.267,346.915z"/>
</g>
<g>
	<g>
		
			<linearGradient id="SVGID_25_" gradientUnits="userSpaceOnUse" x1="447.1719" y1="415.9629" x2="458.7686" y2="415.9629" gradientTransform="matrix(0.9998 -0.0197 0.0197 0.9998 -93.9981 -327.3723)">
			<stop  offset="0" style="stop-color:#20B2D7"/>
			<stop  offset="1" style="stop-color:#7F71B2"/>
		</linearGradient>
		<path fill="url(#SVGID_25_)" d="M371.406,76.332c-2.106-0.211-5.328,0.566-6.4,0.847c-0.25-1.838-0.919-2.999-0.977-3.096
			c-0.248-0.417-0.787-0.556-1.205-0.306c-0.416,0.246-0.555,0.786-0.306,1.203c0.022,0.041,2.354,4.09-0.986,9.149
			c-0.269,0.404-0.157,0.949,0.249,1.216c0.154,0.103,0.329,0.149,0.5,0.146c0.279-0.005,0.552-0.144,0.717-0.394
			c0.171-0.259,0.328-0.515,0.475-0.768c0.896,0.493,2.543,1.272,3.943,1.245c0.451-0.008,0.879-0.102,1.244-0.314
			c0.528-0.306,1.146-0.971,1.098-2.406c-0.023-0.667,0.947-1.844,1.656-2.705c0.955-1.158,1.707-2.072,1.336-2.973
			C372.611,76.838,372.264,76.417,371.406,76.332z M370.059,79.03c-0.986,1.196-2.104,2.552-2.057,3.885
			c0.008,0.253-0.01,0.699-0.223,0.823c-0.545,0.316-2.174-0.232-3.531-0.988c0.563-1.371,0.798-2.646,0.842-3.774
			c0.012-0.002,0.025-0.005,0.039-0.009c0.035-0.011,3.484-0.978,5.699-0.911C370.607,78.362,370.295,78.741,370.059,79.03z"/>
		
			<linearGradient id="SVGID_26_" gradientUnits="userSpaceOnUse" x1="439.3418" y1="413.3594" x2="442.1201" y2="413.3594" gradientTransform="matrix(0.9998 -0.0197 0.0197 0.9998 -93.9981 -327.3723)">
			<stop  offset="0" style="stop-color:#20B2D7"/>
			<stop  offset="1" style="stop-color:#7F71B2"/>
		</linearGradient>
		<circle fill="url(#SVGID_26_)" cx="354.797" cy="77.216" r="1.389"/>
	</g>
	
		<linearGradient id="SVGID_27_" gradientUnits="userSpaceOnUse" x1="433.2607" y1="427.248" x2="499.3369" y2="427.248" gradientTransform="matrix(0.9998 -0.0197 0.0197 0.9998 -93.9981 -327.3723)">
		<stop  offset="0" style="stop-color:#20B2D7"/>
		<stop  offset="1" style="stop-color:#7F71B2"/>
	</linearGradient>
	<path fill="url(#SVGID_27_)" d="M412.844,73.852c-1.516-1.965-6.063-2.506-10.814-1.29c-2.764,0.709-4.738,2.174-6.322,3.351
		c-1.463,1.084-2.615,1.941-3.854,1.896c-0.418-0.016-0.861-0.189-1.362-0.469c0.555-0.625,1.271-1.462,1.974-2.361
		c2.857-3.652,2.924-5.041,2.613-5.919c-0.25-0.705-0.865-1.171-1.686-1.281c-9.859-1.312-18.035,2.173-19.804,3.002
		c-4.952-0.551-10.052-0.571-14.404-0.054c-3.252,0.387-7.636,1.256-10.06,3.206c-1.068,0.859-1.665,1.854-1.775,2.955
		c-0.232,2.325,1.458,5.257,4.41,7.651c2.089,1.693,5.601,3.771,10.966,4.776c0.127,0.526,0.669,2.452,2.188,4.461
		c1.604,2.121,4.646,4.76,10.034,5.299c0.104,0.011,0.209,0.015,0.31,0.014c0.697-0.015,1.289-0.324,1.652-0.874
		c0.512-0.773,0.799-2.114-0.949-6.182c-0.336-0.787-0.691-1.539-1.003-2.169c2.585-0.175,4.876-0.49,6.925-0.773
		c2.588-0.357,4.822-0.666,6.595-0.505c1.376,0.123,2.036,4.401,2.566,7.838c0.808,5.246,1.728,11.191,5.327,14.122
		c1.475,1.199,3.492,2.629,5.348,2.592c0.482-0.008,0.953-0.117,1.4-0.354c2.547-1.346,2.395-5.695,1.961-10.819
		c-0.178-2.097,0.635-2.972,1.662-4.078c0.953-1.021,2.029-2.178,2.234-4.238c0.354-3.526-0.693-5.274-1.459-6.551
		c-0.518-0.869-0.832-1.393-0.699-2.324l0,0c0.387-2.678,2.266-4.309,3.924-5.746c0.973-0.844,1.813-1.573,2.301-2.453
		C413.551,75.664,413.479,74.672,412.844,73.852z M366.957,92.364c-0.762-0.989-1.23-1.958-1.502-2.654
		c0.049,0.004,0.096,0.01,0.142,0.015c2.396,0.24,4.602,0.303,6.641,0.261c0.333,0.637,0.849,1.665,1.335,2.772
		c0.967,2.205,1.195,3.308,1.238,3.807C371.428,96.144,368.789,94.731,366.957,92.364z M387.99,82.25
		c-0.093,1.753-0.271,2.741-0.895,3.815c-0.004,0-0.007,0-0.01,0c-1.656,0.032-3.495,0.286-5.542,0.568
		c-4.105,0.568-9.214,1.272-15.699,0.624c-6.405-0.641-10.345-2.879-12.522-4.646c-2.575-2.088-3.622-4.303-3.504-5.478
		c0.042-0.414,0.332-0.841,0.862-1.268c1.511-1.216,4.717-2.191,8.798-2.676c4.267-0.507,9.301-0.473,14.177,0.094
		c0.001,0,0.002,0,0.003,0c0.002,0,0.004,0,0.006,0c7.783,0.908,11.285,3.316,13.842,5.074c0.615,0.422,1.176,0.806,1.729,1.12
		C388.578,80.425,388.032,81.47,387.99,82.25z M388.396,75.961c-2.061-1.403-4.955-3.214-9.926-4.368
		c3.355-1.032,8.461-2.08,14.141-1.413c-0.193,0.507-0.74,1.561-2.294,3.514C389.613,74.579,388.902,75.396,388.396,75.961z
		 M402.672,86.315c0.203,0.248,0.297,0.559,0.266,0.876c-0.063,0.603-0.563,1.066-1.166,1.078c-0.049,0-0.098-0.001-0.145-0.005
		c-0.318-0.032-0.604-0.186-0.809-0.434c-0.201-0.246-0.295-0.557-0.262-0.875c0.059-0.604,0.559-1.066,1.164-1.078
		c0.047-0.001,0.096,0.001,0.145,0.005C402.184,85.916,402.469,86.067,402.672,86.315z M399.922,80.674
		c0.061-0.602,0.561-1.065,1.164-1.077c0.047-0.001,0.098,0.001,0.145,0.005c0.656,0.065,1.139,0.653,1.072,1.309
		c-0.061,0.603-0.563,1.067-1.164,1.078c-0.049,0-0.098-0.001-0.146-0.006C400.336,81.918,399.855,81.331,399.922,80.674z
		 M392.607,82.38c0.088-0.885,0.877-1.53,1.762-1.442c0.883,0.088,1.529,0.876,1.441,1.762c-0.088,0.885-0.877,1.53-1.762,1.441
		C393.164,84.054,392.518,83.265,392.607,82.38z M394.262,90.297c0.088-0.884,0.877-1.53,1.762-1.442
		c0.885,0.089,1.531,0.877,1.441,1.762c-0.088,0.885-0.879,1.531-1.762,1.443C394.818,91.971,394.172,91.182,394.262,90.297z
		 M398.365,100.16c-0.088,0.885-0.877,1.531-1.764,1.442c-0.883-0.089-1.531-0.878-1.439-1.762c0.088-0.886,0.877-1.531,1.762-1.443
		C397.809,98.486,398.453,99.275,398.365,100.16z M402.115,106.226c-0.061,0.602-0.563,1.065-1.166,1.077
		c-0.047,0.002-0.096,0.001-0.143-0.005c-0.32-0.032-0.607-0.186-0.809-0.433c-0.203-0.247-0.295-0.559-0.264-0.877
		c0.059-0.602,0.561-1.064,1.164-1.077c0.049-0.001,0.098,0.001,0.146,0.005c0.316,0.032,0.604,0.186,0.805,0.434
		C402.053,105.595,402.146,105.909,402.115,106.226z M403.084,94.678c-0.061,0.603-0.561,1.066-1.166,1.079
		c-0.047,0.001-0.096,0-0.145-0.007c-0.656-0.065-1.137-0.652-1.07-1.309c0.059-0.603,0.561-1.065,1.166-1.077
		c0.049-0.001,0.096,0.001,0.143,0.005C402.668,93.435,403.15,94.022,403.084,94.678z M407.871,76.58
		c-0.061,0.602-0.561,1.065-1.166,1.077c-0.047,0.001-0.096,0-0.145-0.005c-0.656-0.066-1.137-0.653-1.072-1.31
		c0.063-0.602,0.563-1.065,1.166-1.077c0.049-0.002,0.098,0,0.145,0.005C407.457,75.336,407.936,75.924,407.871,76.58z"/>
</g>
</svg>
