<?xml version="1.0" encoding="utf-8"?>
<!-- Generator: Adobe Illustrator 14.0.0, SVG Export Plug-In . SVG Version: 6.00 Build 43363)  -->
<!DOCTYPE svg PUBLIC "-//W3C//DTD SVG 1.1//EN" "http://www.w3.org/Graphics/SVG/1.1/DTD/svg11.dtd">
<svg version="1.1" id="contents" xmlns="http://www.w3.org/2000/svg" xmlns:xlink="http://www.w3.org/1999/xlink" x="0px" y="0px"
	 width="800px" height="800px" viewBox="0 0 800 800" enable-background="new 0 0 800 800" xml:space="preserve">
<linearGradient id="SVGID_1_" gradientUnits="userSpaceOnUse" x1="93.5337" y1="357.6572" x2="637.998" y2="357.6572">
	<stop  offset="0" style="stop-color:#20B2D7"/>
	<stop  offset="1" style="stop-color:#7F71B2"/>
</linearGradient>
<path fill="url(#SVGID_1_)" d="M635.706,291.708c3.334-4.3,2.998-10.399-0.793-14.304c-3.789-3.906-9.877-4.426-14.273-1.222
	c-34.695,25.275-99.629,63.47-126.111,58.407c-28.587-5.474-33.331-23.481-34.075-30.501c-0.125-7.437,4.441-19.97,4.461-21.76
	c4.766-20.044,11.229-39.352,19.22-57.424c0.201-0.453,0.369-0.915,0.504-1.384c8.248-18.207,50.412-85.927,130.637-130.381
	c4.84-2.682,6.912-8.56,4.82-13.684c-2.09-5.125-7.686-7.874-13.018-6.406c-7.283,2.006-179.12,49.974-244.603,122.921
	c-15.612,17.393-58.385,49.737-173.493,105.056c-29.964,14.4-87.744,35.881-88.324,36.096c-3.252,1.207-5.737,3.886-6.698,7.219
	c-0.959,3.333-0.28,6.924,1.832,9.675c2.126,2.771,51.167,66.172,101.941,90.219c0.02,1.871,0.055,3.734,0.114,5.59
	c0.14,4.943,0.449,9.844,0.813,14.732c0.778,9.77,1.962,19.467,3.565,29.088c1.603,9.621,3.625,19.16,6.079,28.584
	c2.493,9.418,5.458,18.709,8.886,27.814c3.385,9.119,7.432,18,11.931,26.607c1.164,2.135,2.228,4.311,3.472,6.4l3.703,6.27
	c1.24,2.082,2.639,4.076,3.949,6.111l1.995,3.033l2.144,2.939c5.569,7.916,11.957,15.229,18.688,22.086l5.165,5.029
	c1.771,1.621,3.623,3.154,5.425,4.729l2.718,2.342c0.938,0.744,1.902,1.457,2.851,2.184l5.701,4.328
	c1.081,0.822,2.631,0.725,3.597-0.277c1.042-1.08,1.012-2.799-0.068-3.842l-0.127-0.123l-4.977-4.803
	c-0.824-0.803-1.662-1.586-2.472-2.4l-2.328-2.545c-1.539-1.705-3.121-3.361-4.616-5.094l-4.32-5.338
	c-5.585-7.232-10.741-14.76-15.056-22.764l-1.669-2.963l-1.521-3.049c-0.993-2.041-2.069-4.027-2.991-6.1l-2.742-6.217
	c-0.921-2.063-1.667-4.213-2.509-6.309c-3.214-8.455-5.976-17.068-8.097-25.857c-2.163-8.77-3.878-17.641-5.145-26.576
	c-1.228-8.943-2.045-17.936-2.469-26.938c-0.274-5.838-0.365-11.68-0.313-17.51c12.011,11.824,25.387,23.33,39.903,31.232
	c22.967,66.959,81.412,114.816,101.762,118.193c1.044,0.174,2.023,0.25,2.939,0.25c6.141,0,9.452-3.494,10.685-5.168
	c1.814-2.465,4.271-7.771,0.332-15.605c-10.511-20.896-20.965-42.195-27.479-59.645c38.004,16.941,76.836,32.586,104.615,43.428
	c16.759,6.541,33.306,12.813,46.591,17.658c20.307,7.406,21.262,7.377,23.561,7.301c3.898-0.127,7.434-2.322,9.277-5.76
	c1.84-3.438,1.711-7.598-0.344-10.914c-4.941-7.977-10.631-15.898-16.654-24.285c-18.723-26.068-38.082-53.023-38.082-85.283
	c0-35.031,7.07-54.914,21.012-59.098c3.914-1.174,17.207,2.746,42.229,24.873c17.471,15.449,32.102,32.154,32.246,32.32
	c3.512,4.023,9.418,4.918,13.963,2.115c4.545-2.801,6.4-8.477,4.387-13.42c-6.656-16.35-23.598-63.013-22.063-82.337
	C577.241,373.46,611.665,322.704,635.706,291.708z M167.453,371.483c-9.84,0-17.817-7.977-17.817-17.817
	c0-9.84,7.977-17.817,17.817-17.817c9.84,0,17.817,7.977,17.817,17.817C185.27,363.506,177.292,371.483,167.453,371.483z
	 M342.924,513.052c-3.657-1.699-7.952-1.244-11.173,1.18s-4.845,6.426-4.225,10.41c2.59,16.639,11.95,38.809,23.597,63.025
	c-5.318-4.35-11.351-9.842-17.805-16.621c-15.345-16.117-35.939-42.621-46.91-77.359c-0.902-2.855-2.937-5.217-5.628-6.529
	c-7.985-3.895-15.82-9.391-23.349-15.65c1.833-15.525,5.019-54.303-1.001-103.667c-4.26-34.929-8.898-56.939-12.26-69.791
	c31.609-16.217,58.221-31.168,79.74-44.796c-4.526,19.269-14.395,68.667-10.205,118.231c4.776,56.5,37.732,123.448,53.392,152.522
	C358.9,520.374,350.803,516.712,342.924,513.052z M486.354,409.572c-0.012,0.541-0.016,1.041-0.012,1.506
	c-23.964,17.759-23.979,58.892-23.979,73.726c0,37.283,20.177,67.283,39.132,93.773c-11.994-4.488-26.833-10.164-43.261-16.639
	c-12.465-33.664-36.648-104.684-35.66-146.564c0.939-39.844,12.029-78.041,18.674-97.559c5.492,15.992,19.555,31.582,46.099,37.588
	C487.101,370.176,486.638,397.475,486.354,409.572z"/>
</svg>
