<?xml version="1.0" encoding="utf-8"?>
<!-- Generator: Adobe Illustrator 14.0.0, SVG Export Plug-In . SVG Version: 6.00 Build 43363)  -->
<!DOCTYPE svg PUBLIC "-//W3C//DTD SVG 1.1//EN" "http://www.w3.org/Graphics/SVG/1.1/DTD/svg11.dtd">
<svg version="1.1" id="contents" xmlns="http://www.w3.org/2000/svg" xmlns:xlink="http://www.w3.org/1999/xlink" x="0px" y="0px"
	 width="800px" height="800px" viewBox="0 0 800 800" enable-background="new 0 0 800 800" xml:space="preserve">
<g>
	<g>
		<linearGradient id="SVGID_1_" gradientUnits="userSpaceOnUse" x1="235.0103" y1="302.6509" x2="335.0371" y2="302.6509">
			<stop  offset="0" style="stop-color:#20B2D7"/>
			<stop  offset="1" style="stop-color:#7F71B2"/>
		</linearGradient>
		<path fill="url(#SVGID_1_)" d="M322.828,275.383c-18.125-2.176-46.038,3.979-55.339,6.223
			c-1.841-15.896-7.411-26.024-7.893-26.873c-2.065-3.642-6.691-4.919-10.333-2.855c-3.642,2.065-4.919,6.691-2.854,10.333
			c0.199,0.352,19.606,35.68-10.059,78.732c-2.376,3.447-1.507,8.167,1.94,10.542c1.313,0.905,2.811,1.339,4.294,1.339
			c2.409,0,4.779-1.146,6.249-3.28c1.515-2.198,2.913-4.379,4.216-6.542c7.647,4.402,21.719,11.408,33.81,11.407
			c3.893,0,7.584-0.728,10.785-2.502c4.603-2.551,10.051-8.188,9.867-20.555c-0.086-5.762,8.486-15.758,14.746-23.056
			c8.422-9.821,15.075-17.578,12.03-25.399C333.143,279.96,330.226,276.271,322.828,275.383z M310.748,298.428
			c-8.703,10.148-18.567,21.651-18.396,33.152c0.033,2.195-0.191,6.033-2.056,7.068c-4.743,2.631-18.715-2.372-30.282-9.128
			c5.079-11.73,7.321-22.689,7.901-32.41c0.109-0.023,0.218-0.04,0.327-0.068c0.318-0.083,30.224-7.844,49.32-6.893
			C315.612,292.758,312.85,295.978,310.748,298.428z"/>
		<linearGradient id="SVGID_2_" gradientUnits="userSpaceOnUse" x1="167.4585" y1="280.1841" x2="191.4233" y2="280.1841">
			<stop  offset="0" style="stop-color:#20B2D7"/>
			<stop  offset="1" style="stop-color:#7F71B2"/>
		</linearGradient>
		<circle fill="url(#SVGID_2_)" cx="179.441" cy="280.184" r="11.981"/>
	</g>
	<linearGradient id="SVGID_3_" gradientUnits="userSpaceOnUse" x1="115" y1="400" x2="685" y2="400">
		<stop  offset="0" style="stop-color:#20B2D7"/>
		<stop  offset="1" style="stop-color:#7F71B2"/>
	</linearGradient>
	<path fill="url(#SVGID_3_)" d="M680.65,261.037c-12.734-17.196-51.868-22.646-93.05-12.958
		c-23.972,5.639-41.238,17.94-55.112,27.824c-12.784,9.108-22.872,16.301-33.539,15.694c-3.627-0.207-7.414-1.772-11.677-4.271
		c4.885-5.313,11.201-12.407,17.416-20.037c25.259-31.006,26.074-42.979,23.542-50.601c-2.033-6.12-7.252-10.252-14.317-11.334
		c-84.804-12.992-155.906,15.671-171.314,22.523c-42.613-5.591-86.597-6.641-124.211-2.921c-28.111,2.78-66.077,9.537-87.309,25.94
		c-9.356,7.228-14.677,15.7-15.814,25.18c-2.401,20.017,11.674,45.591,36.734,66.743c17.723,14.959,47.657,33.482,93.765,43.059
		c1.006,4.556,5.352,21.266,18.118,38.85c13.471,18.555,39.263,41.841,85.634,47.416c0.905,0.108,1.795,0.162,2.667,0.162
		c6.025,0,11.185-2.565,14.414-7.254c4.539-6.589,7.24-18.097-7.135-53.477c-2.781-6.846-5.717-13.388-8.294-18.88
		c22.333-1.064,42.148-3.397,59.861-5.487c22.379-2.64,41.708-4.92,56.958-3.242c11.85,1.304,16.813,38.31,20.801,68.044
		c6.088,45.379,12.987,96.813,43.546,122.701c12.511,10.598,29.672,23.271,45.689,23.271c4.153,0,8.233-0.854,12.133-2.816
		c22.195-11.175,21.619-48.719,18.743-92.978c-1.179-18.121,5.98-25.515,15.042-34.876c8.373-8.648,17.863-18.45,19.99-36.177
		c3.642-30.356-5.088-45.609-11.462-56.746c-4.34-7.583-6.96-12.159-5.645-20.166v0c3.783-23.04,20.27-36.775,34.815-48.893
		c8.531-7.107,15.898-13.245,20.273-20.763C686.432,276.801,685.972,268.224,680.65,261.037z M281.747,412.897
		c-6.417-8.652-10.286-17.101-12.51-23.151c0.412,0.051,0.814,0.109,1.229,0.159c20.612,2.474,39.624,3.397,57.218,3.374
		c2.754,5.558,7.039,14.509,11.038,24.134c7.973,19.189,9.756,28.729,10.032,33.042
		C319.658,446.262,297.125,433.637,281.747,412.897z M464.866,329.241c-1.104,15.097-2.813,23.594-8.368,32.748
		c-0.028,0-0.055-0.001-0.082-0.001c-14.287,0-30.189,1.875-47.896,3.965c-35.501,4.189-79.683,9.401-135.505,2.704
		c-55.134-6.616-88.734-26.596-107.211-42.192c-21.854-18.445-30.501-37.728-29.288-47.837c0.428-3.572,3.002-7.203,7.649-10.793
		c13.235-10.225,41.056-18.09,76.33-21.578c36.894-3.648,80.31-2.503,122.258,3.224c0.009,0.001,0.018,0.002,0.027,0.003
		c0.015,0.002,0.03,0.004,0.045,0.006c66.981,9.153,96.774,30.516,118.527,46.114c5.221,3.744,9.998,7.159,14.709,9.964
		C470.243,313.614,465.356,322.531,464.866,329.241z M469.44,275.077c-17.538-12.451-42.194-28.556-84.868-39.359
		c29.116-8.33,73.327-16.5,122.196-9.773c-1.751,4.333-6.654,13.33-20.386,29.913C480.165,263.366,473.896,270.289,469.44,275.077z
		 M590.794,366.809c1.703,2.167,2.461,4.869,2.132,7.606c-0.622,5.185-5.021,9.093-10.229,9.093c-0.414,0-0.834-0.025-1.248-0.075
		c-2.737-0.328-5.184-1.703-6.886-3.871c-1.704-2.167-2.462-4.869-2.133-7.606c0.622-5.184,5.021-9.093,10.23-9.093
		c0.413,0,0.833,0.025,1.247,0.075C586.645,363.266,589.091,364.64,590.794,366.809z M568.03,317.688
		c0.621-5.184,5.02-9.093,10.23-9.093c0.413,0,0.833,0.025,1.246,0.075c5.651,0.678,9.697,5.827,9.02,11.478
		c-0.623,5.184-5.021,9.093-10.231,9.093c-0.413,0-0.832-0.025-1.247-0.075C571.397,328.488,567.352,323.339,568.03,317.688z
		 M504.651,331.154c0.914-7.616,7.828-13.049,15.444-12.135c7.616,0.914,13.049,7.828,12.136,15.444
		c-0.914,7.616-7.829,13.049-15.445,12.135C509.171,345.684,503.737,338.77,504.651,331.154z M517.577,399.716
		c0.913-7.616,7.828-13.049,15.444-12.135c7.615,0.914,13.049,7.829,12.135,15.445s-7.828,13.049-15.444,12.135
		C522.096,414.247,516.663,407.332,517.577,399.716z M551.293,485.478c-0.914,7.616-7.829,13.05-15.445,12.136
		c-7.615-0.914-13.049-7.829-12.135-15.444c0.914-7.616,7.828-13.05,15.444-12.136S552.206,477.862,551.293,485.478z
		 M582.603,538.431c-0.622,5.185-5.02,9.093-10.229,9.093c-0.414,0-0.833-0.025-1.248-0.075c-2.737-0.328-5.184-1.702-6.886-3.871
		c-1.704-2.167-2.461-4.869-2.132-7.606c0.621-5.184,5.02-9.093,10.23-9.093c0.412,0,0.832,0.025,1.246,0.075
		c2.737,0.328,5.184,1.702,6.887,3.871C582.174,532.992,582.932,535.693,582.603,538.431z M592.926,439.004
		c-0.623,5.185-5.021,9.094-10.232,9.094c-0.412,0-0.832-0.024-1.246-0.074c-5.65-0.679-9.695-5.827-9.018-11.478
		c0.622-5.185,5.02-9.094,10.231-9.094c0.412,0,0.832,0.025,1.246,0.075C589.559,428.204,593.604,433.354,592.926,439.004z
		 M637.288,283.728c-0.623,5.184-5.021,9.093-10.231,9.093c-0.413,0-0.833-0.024-1.247-0.075c-5.65-0.678-9.696-5.827-9.018-11.478
		c0.621-5.184,5.02-9.093,10.23-9.093c0.413,0,0.833,0.025,1.246,0.075C633.92,272.928,637.966,278.077,637.288,283.728z"/>
</g>
<linearGradient id="SVGID_4_" gradientUnits="userSpaceOnUse" x1="-765.5957" y1="43.3066" x2="-221.1313" y2="43.3066">
	<stop  offset="0" style="stop-color:#20B2D7"/>
	<stop  offset="1" style="stop-color:#7F71B2"/>
</linearGradient>
<path fill="url(#SVGID_4_)" d="M-223.423-22.642c3.334-4.3,2.998-10.399-0.793-14.304c-3.789-3.906-9.877-4.426-14.273-1.222
	c-34.695,25.275-99.629,63.47-126.111,58.407c-28.587-5.474-33.331-23.481-34.075-30.501c-0.125-7.437,4.441-19.97,4.461-21.76
	c4.766-20.044,11.229-39.352,19.22-57.424c0.201-0.453,0.369-0.915,0.504-1.384c8.248-18.207,50.412-85.927,130.637-130.381
	c4.84-2.682,6.912-8.56,4.82-13.684c-2.09-5.125-7.686-7.874-13.018-6.406c-7.283,2.006-179.12,49.974-244.603,122.921
	c-15.612,17.393-58.385,49.737-173.493,105.056c-29.964,14.4-87.744,35.881-88.324,36.096c-3.252,1.207-5.737,3.886-6.698,7.219
	c-0.959,3.333-0.28,6.924,1.832,9.675c2.126,2.771,51.167,66.172,101.941,90.219c0.02,1.871,0.055,3.734,0.114,5.59
	c0.14,4.943,0.449,9.844,0.813,14.732c0.778,9.77,1.962,19.466,3.565,29.087c1.603,9.621,3.625,19.16,6.079,28.584
	c2.493,9.418,5.458,18.709,8.886,27.814c3.385,9.119,7.432,18,11.931,26.607c1.164,2.135,2.228,4.311,3.472,6.4l3.703,6.27
	c1.24,2.082,2.639,4.076,3.949,6.111l1.995,3.033l2.144,2.939c5.569,7.916,11.957,15.229,18.688,22.086l5.165,5.029
	c1.771,1.621,3.623,3.154,5.425,4.729l2.718,2.342c0.938,0.744,1.902,1.457,2.851,2.184l5.701,4.328
	c1.081,0.822,2.631,0.725,3.597-0.277c1.042-1.08,1.012-2.799-0.068-3.842l-0.127-0.123l-4.977-4.803
	c-0.824-0.803-1.662-1.586-2.472-2.4l-2.328-2.545c-1.539-1.705-3.121-3.361-4.616-5.094l-4.32-5.338
	c-5.585-7.232-10.741-14.76-15.056-22.764l-1.669-2.963l-1.521-3.049c-0.993-2.041-2.069-4.027-2.991-6.1l-2.742-6.217
	c-0.921-2.063-1.667-4.213-2.509-6.309c-3.214-8.455-5.976-17.068-8.097-25.857c-2.163-8.77-3.878-17.641-5.145-26.576
	c-1.228-8.943-2.045-17.936-2.469-26.938c-0.274-5.838-0.365-11.68-0.313-17.509c12.011,11.824,25.387,23.33,39.903,31.232
	c22.967,66.959,81.412,114.816,101.762,118.193c1.044,0.174,2.023,0.25,2.939,0.25c6.141,0,9.452-3.494,10.685-5.168
	c1.814-2.465,4.271-7.771,0.332-15.605c-10.511-20.896-20.965-42.195-27.479-59.645c38.004,16.941,76.836,32.586,104.615,43.428
	c16.759,6.541,33.306,12.813,46.591,17.658c20.307,7.406,21.262,7.377,23.561,7.301c3.898-0.127,7.434-2.322,9.277-5.76
	c1.84-3.438,1.711-7.598-0.344-10.914c-4.941-7.977-10.631-15.898-16.654-24.285c-18.723-26.068-38.082-53.023-38.082-85.283
	c0-35.031,7.07-54.914,21.012-59.097c3.914-1.174,17.207,2.746,42.229,24.873c17.471,15.449,32.102,32.154,32.246,32.32
	c3.512,4.023,9.418,4.918,13.963,2.115c4.545-2.801,6.4-8.476,4.387-13.419c-6.656-16.35-23.598-63.013-22.063-82.337
	C-281.888,59.11-247.464,8.354-223.423-22.642z M-691.677,57.133c-9.84,0-17.817-7.977-17.817-17.817
	c0-9.84,7.977-17.817,17.817-17.817c9.84,0,17.817,7.977,17.817,17.817C-673.86,49.156-681.837,57.133-691.677,57.133z
	 M-516.206,198.701c-3.657-1.699-7.952-1.244-11.173,1.18s-4.845,6.426-4.225,10.41c2.59,16.639,11.95,38.809,23.597,63.025
	c-5.318-4.35-11.351-9.842-17.805-16.621c-15.345-16.117-35.939-42.621-46.91-77.359c-0.902-2.855-2.937-5.217-5.628-6.529
	c-7.985-3.895-15.82-9.39-23.349-15.65c1.833-15.525,5.019-54.303-1.001-103.667c-4.26-34.929-8.898-56.939-12.26-69.791
	c31.609-16.217,58.221-31.168,79.74-44.796c-4.526,19.269-14.395,68.667-10.205,118.231c4.776,56.5,37.732,123.447,53.392,152.521
	C-500.229,206.023-508.327,202.361-516.206,198.701z M-372.775,95.222c-0.012,0.541-0.016,1.041-0.012,1.506
	c-23.964,17.759-23.979,58.892-23.979,73.725c0,37.283,20.177,67.283,39.132,93.773c-11.994-4.488-26.833-10.164-43.261-16.639
	c-12.465-33.664-36.648-104.683-35.66-146.564c0.939-39.844,12.029-78.041,18.674-97.559c5.492,15.992,19.555,31.582,46.099,37.588
	C-372.029,55.826-372.492,83.125-372.775,95.222z"/>
</svg>
